<svg width="105" height="110" viewBox="0 0 105 110" fill="none" xmlns="http://www.w3.org/2000/svg">
<path d="M5.29963 26.0656C4.29633 25.4088 4.01194 24.0601 4.70779 23.0835C11.3461 13.7669 20.7375 6.73604 31.5875 2.99863C43.1229 -0.974884 55.6521 -1.00005 67.2034 2.92708C78.7547 6.85421 88.6723 14.5107 95.3956 24.6917C102.119 34.8727 105.266 47.0002 104.342 59.1657C103.418 71.3313 98.475 82.8443 90.2911 91.8929C82.1071 100.942 71.1468 107.012 59.1349 109.15C47.1229 111.287 34.7413 109.369 23.9384 103.699C13.7774 98.3658 5.55573 89.997 0.400848 79.7846C-0.139503 78.7141 0.345322 77.4239 1.43632 76.9262C2.52731 76.4285 3.811 76.9119 4.35498 77.9806C9.10754 87.3173 16.6487 94.9684 25.9566 99.8541C35.9066 105.077 47.3106 106.843 58.3742 104.874C69.4377 102.906 79.5326 97.3143 87.0704 88.98C94.6082 80.6458 99.1608 70.0419 100.012 58.8368C100.863 47.6318 97.9643 36.4618 91.7719 27.0847C85.5795 17.7076 76.4449 10.6556 65.8056 7.03851C55.1664 3.42144 43.6264 3.44463 33.0018 7.10441C23.0627 10.5281 14.4524 16.9524 8.34408 25.4641C7.64492 26.4383 6.30293 26.7223 5.29963 26.0656Z" fill="#CD8C52"/>
</svg>
