<svg width="272" height="60" viewBox="0 0 272 60" fill="none" xmlns="http://www.w3.org/2000/svg">
<path d="M24.38 29.22C24.9667 29.5933 25.4133 30.0867 25.72 30.7C26.0267 31.3133 26.18 32.0067 26.18 32.78C26.18 33.4333 26.0533 34.02 25.8 34.54C25.56 35.06 25.2467 35.5067 24.86 35.88C24.4867 36.24 24.0667 36.52 23.6 36.72C23.1333 36.9067 22.68 37 22.24 37H17.92C17.6933 37 17.5 36.92 17.34 36.76C17.18 36.6 17.1 36.4133 17.1 36.2V23.8C17.1 23.5867 17.18 23.4 17.34 23.24C17.5 23.08 17.6933 23 17.92 23H21.34C21.3933 23 21.5933 23.0267 21.94 23.08C22.2867 23.12 22.6667 23.2467 23.08 23.46C23.68 23.7667 24.1333 24.1867 24.44 24.72C24.76 25.2533 24.92 25.88 24.92 26.6C24.92 27.4267 24.7067 28.1467 24.28 28.76L24.38 29.22ZM18.74 28.58H21C21.1067 28.58 21.28 28.5667 21.52 28.54C21.7733 28.5133 22.0267 28.44 22.28 28.32C22.5467 28.1867 22.78 27.9867 22.98 27.72C23.18 27.4533 23.28 27.08 23.28 26.6C23.28 26.16 23.2067 25.8133 23.06 25.56C22.9267 25.2933 22.7667 25.0933 22.58 24.96C22.3933 24.8267 22.2 24.74 22 24.7C21.8 24.66 21.6333 24.64 21.5 24.64H18.74V28.58ZM23.4 35.02C23.6533 34.8733 23.8533 34.7067 24 34.52C24.16 34.3333 24.2733 34.14 24.34 33.94C24.42 33.74 24.4667 33.54 24.48 33.34C24.5067 33.14 24.52 32.9533 24.52 32.78C24.52 32.54 24.48 32.2733 24.4 31.98C24.32 31.6867 24.1867 31.4067 24 31.14C23.8133 30.8733 23.56 30.6533 23.24 30.48C22.9333 30.2933 22.5533 30.2 22.1 30.2H18.74V35.36H22.1C22.1133 35.36 22.26 35.3467 22.54 35.32C22.82 35.28 23.1067 35.18 23.4 35.02ZM39.6775 35.36C39.9042 35.36 40.0975 35.44 40.2575 35.6C40.4175 35.76 40.4975 35.96 40.4975 36.2C40.4975 36.4133 40.4175 36.6 40.2575 36.76C40.0975 36.92 39.9042 37 39.6775 37H32.8775C32.6508 37 32.4575 36.92 32.2975 36.76C32.1375 36.6 32.0575 36.4133 32.0575 36.2V23.8C32.0575 23.5867 32.1375 23.4 32.2975 23.24C32.4575 23.08 32.6508 23 32.8775 23H39.6775C39.9042 23 40.0975 23.08 40.2575 23.24C40.4175 23.4 40.4975 23.5867 40.4975 23.8C40.4975 24.04 40.4175 24.24 40.2575 24.4C40.0975 24.56 39.9042 24.64 39.6775 24.64H33.6975V29.2H38.4375C38.6642 29.2 38.8508 29.28 38.9975 29.44C39.1575 29.5867 39.2375 29.7733 39.2375 30C39.2375 30.2267 39.1575 30.42 38.9975 30.58C38.8508 30.7267 38.6642 30.8 38.4375 30.8H33.6975V35.36H39.6775ZM47.1691 37C46.9557 37 46.7691 36.92 46.6091 36.76C46.4491 36.6 46.3691 36.4133 46.3691 36.2V23.8C46.3691 23.5867 46.4491 23.4 46.6091 23.24C46.7691 23.08 46.9557 23 47.1691 23H50.7691C50.7824 23 50.9357 23.0133 51.2291 23.04C51.5357 23.0533 51.9091 23.1267 52.3491 23.26C52.7891 23.38 53.2624 23.58 53.7691 23.86C54.2757 24.14 54.7424 24.54 55.1691 25.06C55.5957 25.58 55.9491 26.24 56.2291 27.04C56.5224 27.84 56.6691 28.8267 56.6691 30C56.6691 31.1733 56.5224 32.16 56.2291 32.96C55.9491 33.76 55.5957 34.42 55.1691 34.94C54.7424 35.46 54.2757 35.86 53.7691 36.14C53.2624 36.42 52.7891 36.6267 52.3491 36.76C51.9091 36.88 51.5357 36.9533 51.2291 36.98C50.9357 36.9933 50.7824 37 50.7691 37H47.1691ZM48.0291 35.36H50.7691C50.7957 35.36 50.8757 35.3533 51.0091 35.34C51.1424 35.3267 51.3091 35.3 51.5091 35.26C51.7091 35.2067 51.9357 35.1333 52.1891 35.04C52.4424 34.9333 52.7024 34.8 52.9691 34.64C53.6224 34.2 54.1291 33.5867 54.4891 32.8C54.8491 32.0133 55.0291 31.08 55.0291 30C55.0291 28.88 54.8424 27.9267 54.4691 27.14C54.0957 26.3533 53.5624 25.74 52.8691 25.3C52.6291 25.14 52.3824 25.02 52.1291 24.94C51.8757 24.8467 51.6491 24.78 51.4491 24.74C51.2491 24.7 51.0824 24.6733 50.9491 24.66C50.8291 24.6467 50.7691 24.64 50.7691 24.64H48.0291V35.36ZM67.3184 37C66.3451 37 65.4918 36.78 64.7584 36.34C64.0251 35.8867 63.4584 35.2267 63.0584 34.36C62.9118 34.0667 62.7984 33.78 62.7184 33.5C62.6518 33.2067 62.5984 32.9467 62.5584 32.72C62.5184 32.48 62.4918 32.2867 62.4784 32.14C62.4784 31.9933 62.4784 31.9 62.4784 31.86V23.8C62.4784 23.5867 62.5584 23.4 62.7184 23.24C62.8918 23.08 63.0918 23 63.3184 23C63.5318 23 63.7184 23.08 63.8784 23.24C64.0384 23.4 64.1184 23.5867 64.1184 23.8V31.86C64.1184 31.9133 64.1251 32.04 64.1384 32.24C64.1651 32.4267 64.2184 32.6533 64.2984 32.92C64.3784 33.1733 64.4851 33.4467 64.6184 33.74C64.7651 34.02 64.9518 34.28 65.1784 34.52C65.4184 34.76 65.7118 34.96 66.0584 35.12C66.4184 35.28 66.8384 35.36 67.3184 35.36C68.0118 35.36 68.5718 35.2067 68.9984 34.9C69.4251 34.58 69.7451 34.22 69.9584 33.82C70.1851 33.4067 70.3318 33.0133 70.3984 32.64C70.4784 32.2533 70.5184 31.9933 70.5184 31.86V23.8C70.5184 23.5867 70.5984 23.4 70.7584 23.24C70.9184 23.08 71.1118 23 71.3384 23C71.5651 23 71.7518 23.08 71.8984 23.24C72.0584 23.4 72.1384 23.5867 72.1384 23.8V31.86C72.1384 31.9 72.1318 31.9933 72.1184 32.14C72.1184 32.2867 72.0984 32.48 72.0584 32.72C72.0318 32.9467 71.9784 33.2067 71.8984 33.5C71.8184 33.78 71.7118 34.0667 71.5784 34.36C71.1784 35.2267 70.6118 35.8867 69.8784 36.34C69.1584 36.78 68.3051 37 67.3184 37ZM86.2223 23C86.4623 23 86.6623 23.08 86.8223 23.24C86.9957 23.4 87.0823 23.5867 87.0823 23.8C87.0823 24.04 86.9957 24.24 86.8223 24.4C86.6623 24.56 86.4623 24.64 86.2223 24.64H83.3423V36.2C83.3423 36.4133 83.2623 36.6 83.1023 36.76C82.9423 36.92 82.749 37 82.5223 37C82.2957 37 82.1023 36.92 81.9423 36.76C81.7957 36.6 81.7223 36.4133 81.7223 36.2V24.64H78.8223C78.5957 24.64 78.4023 24.56 78.2423 24.4C78.0823 24.24 78.0023 24.04 78.0023 23.8C78.0023 23.5867 78.0823 23.4 78.2423 23.24C78.4023 23.08 78.5957 23 78.8223 23H86.2223ZM101.16 23C101.4 23 101.6 23.08 101.76 23.24C101.933 23.4 102.02 23.5867 102.02 23.8C102.02 24.04 101.933 24.24 101.76 24.4C101.6 24.56 101.4 24.64 101.16 24.64H98.2798V36.2C98.2798 36.4133 98.1998 36.6 98.0398 36.76C97.8798 36.92 97.6865 37 97.4598 37C97.2332 37 97.0398 36.92 96.8798 36.76C96.7332 36.6 96.6598 36.4133 96.6598 36.2V24.64H93.7598C93.5332 24.64 93.3398 24.56 93.1798 24.4C93.0198 24.24 92.9398 24.04 92.9398 23.8C92.9398 23.5867 93.0198 23.4 93.1798 23.24C93.3398 23.08 93.5332 23 93.7598 23H101.16ZM108.777 37C108.564 37 108.377 36.92 108.217 36.76C108.057 36.6 107.977 36.4133 107.977 36.2V23.8C107.977 23.5867 108.057 23.4 108.217 23.24C108.377 23.08 108.564 23 108.777 23C109.004 23 109.197 23.08 109.357 23.24C109.531 23.4 109.617 23.5867 109.617 23.8V36.2C109.617 36.4133 109.531 36.6 109.357 36.76C109.197 36.92 109.004 37 108.777 37ZM136.595 35.88C136.621 35.9867 136.635 36.0933 136.635 36.2C136.635 36.4 136.561 36.5867 136.415 36.76C136.281 36.92 136.088 37 135.835 37C135.688 37 135.535 36.9467 135.375 36.84C135.228 36.72 135.121 36.5867 135.055 36.44V36.46L134.035 33.92H127.715C127.568 34.3067 127.401 34.7333 127.215 35.2C127.028 35.6533 126.855 36.0733 126.695 36.46C126.628 36.5933 126.515 36.72 126.355 36.84C126.208 36.9467 126.068 37 125.935 37C125.695 37 125.501 36.9133 125.355 36.74C125.208 36.5667 125.135 36.3867 125.135 36.2C125.135 36.0933 125.148 35.9867 125.175 35.88L129.075 26.08L130.115 23.54V23.56C130.181 23.4133 130.281 23.2867 130.415 23.18C130.561 23.06 130.721 23 130.895 23C131.041 23 131.188 23.06 131.335 23.18C131.481 23.2867 131.588 23.4133 131.655 23.56V23.54L136.595 35.88ZM133.355 32.28L130.895 26L128.395 32.28H133.355ZM146.318 37C145.345 37 144.492 36.78 143.758 36.34C143.025 35.8867 142.458 35.2267 142.058 34.36C141.912 34.0667 141.798 33.78 141.718 33.5C141.652 33.2067 141.598 32.9467 141.558 32.72C141.518 32.48 141.492 32.2867 141.478 32.14C141.478 31.9933 141.478 31.9 141.478 31.86V23.8C141.478 23.5867 141.558 23.4 141.718 23.24C141.892 23.08 142.092 23 142.318 23C142.532 23 142.718 23.08 142.878 23.24C143.038 23.4 143.118 23.5867 143.118 23.8V31.86C143.118 31.9133 143.125 32.04 143.138 32.24C143.165 32.4267 143.218 32.6533 143.298 32.92C143.378 33.1733 143.485 33.4467 143.618 33.74C143.765 34.02 143.952 34.28 144.178 34.52C144.418 34.76 144.712 34.96 145.058 35.12C145.418 35.28 145.838 35.36 146.318 35.36C147.012 35.36 147.572 35.2067 147.998 34.9C148.425 34.58 148.745 34.22 148.958 33.82C149.185 33.4067 149.332 33.0133 149.398 32.64C149.478 32.2533 149.518 31.9933 149.518 31.86V23.8C149.518 23.5867 149.598 23.4 149.758 23.24C149.918 23.08 150.112 23 150.338 23C150.565 23 150.752 23.08 150.898 23.24C151.058 23.4 151.138 23.5867 151.138 23.8V31.86C151.138 31.9 151.132 31.9933 151.118 32.14C151.118 32.2867 151.098 32.48 151.058 32.72C151.032 32.9467 150.978 33.2067 150.898 33.5C150.818 33.78 150.712 34.0667 150.578 34.36C150.178 35.2267 149.612 35.8867 148.878 36.34C148.158 36.78 147.305 37 146.318 37ZM165.222 23C165.462 23 165.662 23.08 165.822 23.24C165.996 23.4 166.082 23.5867 166.082 23.8C166.082 24.04 165.996 24.24 165.822 24.4C165.662 24.56 165.462 24.64 165.222 24.64H162.342V36.2C162.342 36.4133 162.262 36.6 162.102 36.76C161.942 36.92 161.749 37 161.522 37C161.296 37 161.102 36.92 160.942 36.76C160.796 36.6 160.722 36.4133 160.722 36.2V24.64H157.822C157.596 24.64 157.402 24.56 157.242 24.4C157.082 24.24 157.002 24.04 157.002 23.8C157.002 23.5867 157.082 23.4 157.242 23.24C157.402 23.08 157.596 23 157.822 23H165.222ZM177.135 37C176.215 37 175.348 36.82 174.535 36.46C173.721 36.0867 173.008 35.5867 172.395 34.96C171.795 34.32 171.315 33.5733 170.955 32.72C170.608 31.8667 170.435 30.96 170.435 30C170.435 29.04 170.608 28.14 170.955 27.3C171.315 26.4467 171.795 25.7 172.395 25.06C173.008 24.42 173.721 23.92 174.535 23.56C175.348 23.1867 176.215 23 177.135 23C178.055 23 178.921 23.1867 179.735 23.56C180.548 23.92 181.255 24.42 181.855 25.06C182.455 25.7 182.928 26.4467 183.275 27.3C183.635 28.14 183.815 29.04 183.815 30C183.815 30.96 183.635 31.8667 183.275 32.72C182.928 33.5733 182.455 34.32 181.855 34.96C181.255 35.5867 180.548 36.0867 179.735 36.46C178.921 36.82 178.055 37 177.135 37ZM177.135 24.64C176.428 24.64 175.768 24.78 175.155 25.06C174.541 25.34 174.008 25.72 173.555 26.2C173.101 26.68 172.741 27.2467 172.475 27.9C172.208 28.5533 172.075 29.2533 172.075 30C172.075 30.7467 172.208 31.4467 172.475 32.1C172.741 32.7533 173.101 33.32 173.555 33.8C174.008 34.28 174.541 34.66 175.155 34.94C175.768 35.22 176.428 35.36 177.135 35.36C177.828 35.36 178.481 35.22 179.095 34.94C179.708 34.66 180.241 34.28 180.695 33.8C181.161 33.32 181.521 32.7533 181.775 32.1C182.041 31.4467 182.175 30.7467 182.175 30C182.175 29.2533 182.041 28.5533 181.775 27.9C181.521 27.2467 181.161 26.68 180.695 26.2C180.241 25.72 179.708 25.34 179.095 25.06C178.481 24.78 177.828 24.64 177.135 24.64ZM201.394 37C201.181 37 200.994 36.92 200.834 36.76C200.674 36.6 200.594 36.4133 200.594 36.2V26.28L196.494 31.72C196.347 31.9467 196.127 32.06 195.834 32.06C195.714 32.06 195.594 32.0333 195.474 31.98C195.354 31.9133 195.254 31.8267 195.174 31.72L191.114 26.28V36.2C191.114 36.4133 191.027 36.6 190.854 36.76C190.694 36.92 190.501 37 190.274 37C190.047 37 189.854 36.92 189.694 36.76C189.534 36.6 189.454 36.4133 189.454 36.2V23.8C189.454 23.5867 189.534 23.4 189.694 23.24C189.867 23.08 190.067 23 190.294 23C190.414 23 190.527 23.0333 190.634 23.1C190.754 23.1533 190.854 23.2267 190.934 23.32L195.834 29.88L200.754 23.32C200.927 23.1067 201.141 23 201.394 23C201.634 23 201.827 23.08 201.974 23.24C202.134 23.4 202.214 23.5867 202.214 23.8V36.2C202.214 36.4133 202.134 36.6 201.974 36.76C201.814 36.92 201.621 37 201.394 37ZM219.388 35.88C219.414 35.9867 219.428 36.0933 219.428 36.2C219.428 36.4 219.354 36.5867 219.208 36.76C219.074 36.92 218.881 37 218.628 37C218.481 37 218.328 36.9467 218.168 36.84C218.021 36.72 217.914 36.5867 217.848 36.44V36.46L216.828 33.92H210.508C210.361 34.3067 210.194 34.7333 210.008 35.2C209.821 35.6533 209.648 36.0733 209.488 36.46C209.421 36.5933 209.308 36.72 209.148 36.84C209.001 36.9467 208.861 37 208.728 37C208.488 37 208.294 36.9133 208.148 36.74C208.001 36.5667 207.928 36.3867 207.928 36.2C207.928 36.0933 207.941 35.9867 207.968 35.88L211.868 26.08L212.908 23.54V23.56C212.974 23.4133 213.074 23.2867 213.208 23.18C213.354 23.06 213.514 23 213.688 23C213.834 23 213.981 23.06 214.128 23.18C214.274 23.2867 214.381 23.4133 214.448 23.56V23.54L219.388 35.88ZM216.148 32.28L213.688 26L211.188 32.28H216.148ZM232.169 24.1C231.409 24.1 230.723 24.2333 230.109 24.5C229.496 24.7533 228.976 25.1333 228.549 25.64C228.123 26.1333 227.796 26.74 227.569 27.46C227.343 28.1667 227.229 28.9667 227.229 29.86C227.229 31.0333 227.409 32.0533 227.769 32.92C228.143 33.7867 228.689 34.4533 229.409 34.92C230.143 35.3867 231.056 35.62 232.149 35.62C232.776 35.62 233.369 35.5667 233.929 35.46C234.489 35.3533 235.036 35.22 235.569 35.06V36.62C235.036 36.82 234.483 36.9667 233.909 37.06C233.349 37.1533 232.676 37.2 231.889 37.2C230.436 37.2 229.223 36.9 228.249 36.3C227.276 35.7 226.543 34.8467 226.049 33.74C225.569 32.6333 225.329 31.3333 225.329 29.84C225.329 28.76 225.476 27.7733 225.769 26.88C226.076 25.9867 226.516 25.2133 227.089 24.56C227.676 23.9067 228.396 23.4067 229.249 23.06C230.103 22.7 231.083 22.52 232.189 22.52C232.923 22.52 233.629 22.5933 234.309 22.74C234.989 22.8867 235.596 23.0933 236.129 23.36L235.409 24.88C234.969 24.68 234.476 24.5 233.929 24.34C233.396 24.18 232.809 24.1 232.169 24.1ZM233.569 39.78C233.569 40.2067 233.456 40.5667 233.229 40.86C233.016 41.1667 232.689 41.4 232.249 41.56C231.809 41.72 231.263 41.8 230.609 41.8C230.409 41.8 230.216 41.7867 230.029 41.76C229.856 41.7467 229.716 41.7267 229.609 41.7V40.6C229.729 40.6267 229.889 40.6467 230.089 40.66C230.289 40.6867 230.483 40.7 230.669 40.7C231.149 40.7 231.516 40.6333 231.769 40.5C232.023 40.38 232.149 40.1533 232.149 39.82C232.149 39.4733 231.969 39.22 231.609 39.06C231.263 38.9 230.836 38.7867 230.329 38.72L231.189 37H232.349L231.829 38.06C232.149 38.1267 232.443 38.2267 232.709 38.36C232.976 38.5067 233.183 38.6933 233.329 38.92C233.489 39.1467 233.569 39.4333 233.569 39.78ZM248.486 21.02C248.286 21.02 248.086 20.9867 247.886 20.92C247.686 20.8533 247.506 20.7733 247.346 20.68C247.186 20.5867 247.026 20.52 246.866 20.48C246.706 20.4267 246.493 20.4 246.226 20.4C246.119 20.5867 245.993 20.74 245.846 20.86C245.699 20.9667 245.553 21.02 245.406 21.02C245.179 21.02 244.986 20.94 244.826 20.78C244.666 20.62 244.586 20.4267 244.586 20.2C244.586 20.08 244.613 19.94 244.666 19.78C244.733 19.6067 244.846 19.4467 245.006 19.3C245.166 19.14 245.379 19.0133 245.646 18.92C245.913 18.8133 246.253 18.76 246.666 18.76C246.866 18.76 247.053 18.7933 247.226 18.86C247.413 18.9133 247.579 18.9867 247.726 19.08C247.753 19.0933 247.779 19.1067 247.806 19.12C247.833 19.1333 247.833 19.1267 247.806 19.1C247.966 19.18 248.113 19.2467 248.246 19.3C248.393 19.3533 248.619 19.38 248.926 19.38C249.139 18.9667 249.413 18.76 249.746 18.76C249.973 18.76 250.159 18.84 250.306 19C250.466 19.16 250.546 19.3533 250.546 19.58C250.546 20.1 250.346 20.4733 249.946 20.7C249.559 20.9133 249.073 21.02 248.486 21.02ZM253.286 35.88C253.313 35.9867 253.326 36.0933 253.326 36.2C253.326 36.4 253.253 36.5867 253.106 36.76C252.973 36.92 252.779 37 252.526 37C252.379 37 252.226 36.9467 252.066 36.84C251.919 36.72 251.813 36.5867 251.746 36.44V36.46L250.726 33.92H244.406C244.259 34.3067 244.093 34.7333 243.906 35.2C243.719 35.6533 243.546 36.0733 243.386 36.46C243.319 36.5933 243.206 36.72 243.046 36.84C242.899 36.9467 242.759 37 242.626 37C242.386 37 242.193 36.9133 242.046 36.74C241.899 36.5667 241.826 36.3867 241.826 36.2C241.826 36.0933 241.839 35.9867 241.866 35.88L245.766 26.08L246.806 23.54V23.56C246.873 23.4133 246.973 23.2867 247.106 23.18C247.253 23.06 247.413 23 247.586 23C247.733 23 247.879 23.06 248.026 23.18C248.173 23.2867 248.279 23.4133 248.346 23.56V23.54L253.286 35.88ZM250.046 32.28L247.586 26L245.086 32.28H250.046ZM264.303 37C263.383 37 262.516 36.82 261.702 36.46C260.889 36.0867 260.176 35.5867 259.563 34.96C258.963 34.32 258.483 33.5733 258.123 32.72C257.776 31.8667 257.603 30.96 257.603 30C257.603 29.04 257.776 28.14 258.123 27.3C258.483 26.4467 258.963 25.7 259.563 25.06C260.176 24.42 260.889 23.92 261.702 23.56C262.516 23.1867 263.383 23 264.303 23C265.223 23 266.089 23.1867 266.903 23.56C267.716 23.92 268.423 24.42 269.023 25.06C269.623 25.7 270.096 26.4467 270.443 27.3C270.803 28.14 270.983 29.04 270.983 30C270.983 30.96 270.803 31.8667 270.443 32.72C270.096 33.5733 269.623 34.32 269.023 34.96C268.423 35.5867 267.716 36.0867 266.903 36.46C266.089 36.82 265.223 37 264.303 37ZM264.303 24.64C263.596 24.64 262.936 24.78 262.323 25.06C261.709 25.34 261.176 25.72 260.723 26.2C260.269 26.68 259.909 27.2467 259.643 27.9C259.376 28.5533 259.243 29.2533 259.243 30C259.243 30.7467 259.376 31.4467 259.643 32.1C259.909 32.7533 260.269 33.32 260.723 33.8C261.176 34.28 261.709 34.66 262.323 34.94C262.936 35.22 263.596 35.36 264.303 35.36C264.996 35.36 265.649 35.22 266.263 34.94C266.876 34.66 267.409 34.28 267.862 33.8C268.329 33.32 268.689 32.7533 268.943 32.1C269.209 31.4467 269.343 30.7467 269.343 30C269.343 29.2533 269.209 28.5533 268.943 27.9C268.689 27.2467 268.329 26.68 267.862 26.2C267.409 25.72 266.876 25.34 266.263 25.06C265.649 24.78 264.996 24.64 264.303 24.64Z" fill="#CD8C52"/>
<path d="M49.5062 49.5062C50.449 50.449 50.4548 51.9859 49.4394 52.8498C45.5549 56.1545 40.8807 58.4234 35.8527 59.4236C30.0333 60.5811 24.0013 59.987 18.5195 57.7164C13.0377 55.4458 8.35236 51.6006 5.05591 46.6671C1.75947 41.7336 3.65434e-07 35.9334 0 30C-3.65434e-07 24.0666 1.75947 18.2664 5.05591 13.3329C8.35235 8.39942 13.0377 4.55424 18.5195 2.28362C24.0013 0.0129857 30.0333 -0.581115 35.8527 0.576441C40.8807 1.57657 45.5549 3.84552 49.4394 7.15022C50.4548 8.01414 50.449 9.55103 49.5062 10.4938C48.5635 11.4365 47.0417 11.4263 46.0131 10.5781C42.8139 7.9404 39.0019 6.1255 34.9108 5.31173C30.0279 4.34047 24.9667 4.83896 20.3671 6.74416C15.7675 8.64937 11.8362 11.8757 9.0703 16.0152C6.30437 20.1547 4.82806 25.0215 4.82806 30C4.82806 34.9785 6.30437 39.8453 9.0703 43.9848C11.8362 48.1243 15.7675 51.3506 20.3671 53.2558C24.9667 55.161 30.0279 55.6595 34.9108 54.6883C39.0019 53.8745 42.8139 52.0596 46.0131 49.4219C47.0417 48.5737 48.5635 48.5635 49.5062 49.5062Z" fill="#CD8C52"/>
</svg>
