<svg width="396" height="110" viewBox="0 0 396 110" fill="none" xmlns="http://www.w3.org/2000/svg">
<path d="M21.9677 69C21.6743 69 21.4077 68.9333 21.1677 68.8C20.9543 68.64 20.7677 68.4533 20.6077 68.24L6.32766 47.8V67.4C6.32766 67.8267 6.15432 68.2 5.80766 68.52C5.48766 68.84 5.08766 69 4.60766 69C4.18099 69 3.80766 68.84 3.48766 68.52C3.16766 68.2 3.00766 67.8267 3.00766 67.4V42.6C3.00766 42.2 3.16766 41.84 3.48766 41.52C3.80766 41.1733 4.19432 41 4.64766 41C4.94099 41 5.19432 41.08 5.40766 41.24C5.64766 41.3733 5.84766 41.5467 6.00766 41.76L20.3277 62.2V42.6C20.3277 42.1733 20.4877 41.8 20.8077 41.48C21.1277 41.16 21.5143 41 21.9677 41C22.421 41 22.8077 41.16 23.1277 41.48C23.4477 41.8 23.6077 42.1733 23.6077 42.6V67.4C23.6077 67.8267 23.4477 68.2 23.1277 68.52C22.8077 68.84 22.421 69 21.9677 69ZM42.5464 69C40.7064 69 38.9731 68.64 37.3464 67.92C35.7197 67.1733 34.2931 66.1733 33.0664 64.92C31.8664 63.64 30.9064 62.1467 30.1864 60.44C29.4931 58.7333 29.1464 56.92 29.1464 55C29.1464 53.08 29.4931 51.28 30.1864 49.6C30.9064 47.8933 31.8664 46.4 33.0664 45.12C34.2931 43.84 35.7197 42.84 37.3464 42.12C38.9731 41.3733 40.7064 41 42.5464 41C44.3864 41 46.1197 41.3733 47.7464 42.12C49.3731 42.84 50.7864 43.84 51.9864 45.12C53.1864 46.4 54.1331 47.8933 54.8264 49.6C55.5464 51.28 55.9064 53.08 55.9064 55C55.9064 56.92 55.5464 58.7333 54.8264 60.44C54.1331 62.1467 53.1864 63.64 51.9864 64.92C50.7864 66.1733 49.3731 67.1733 47.7464 67.92C46.1197 68.64 44.3864 69 42.5464 69ZM42.5464 44.28C41.1331 44.28 39.8131 44.56 38.5864 45.12C37.3597 45.68 36.2931 46.44 35.3864 47.4C34.4797 48.36 33.7597 49.4933 33.2264 50.8C32.6931 52.1067 32.4264 53.5067 32.4264 55C32.4264 56.4933 32.6931 57.8933 33.2264 59.2C33.7597 60.5067 34.4797 61.64 35.3864 62.6C36.2931 63.56 37.3597 64.32 38.5864 64.88C39.8131 65.44 41.1331 65.72 42.5464 65.72C43.9331 65.72 45.2397 65.44 46.4664 64.88C47.6931 64.32 48.7597 63.56 49.6664 62.6C50.5997 61.64 51.3197 60.5067 51.8264 59.2C52.3597 57.8933 52.6264 56.4933 52.6264 55C52.6264 53.5067 52.3597 52.1067 51.8264 50.8C51.3197 49.4933 50.5997 48.36 49.6664 47.4C48.7597 46.44 47.6931 45.68 46.4664 45.12C45.2397 44.56 43.9331 44.28 42.5464 44.28ZM68.3439 52.2C68.5306 52.2533 68.8506 52.3733 69.3039 52.56C69.7572 52.7467 70.2772 53 70.8639 53.32C71.4506 53.6133 72.0639 53.9867 72.7039 54.44C73.3439 54.8667 73.9439 55.36 74.5039 55.92C75.0639 56.48 75.5439 57.1067 75.9439 57.8C76.3439 58.4667 76.5972 59.2 76.7039 60V60.4C76.7039 61.4933 76.4906 62.56 76.0639 63.6C75.6372 64.6133 75.0372 65.5067 74.2639 66.28C73.4106 67.1333 72.4106 67.7867 71.2639 68.24C70.1172 68.6933 68.9039 68.92 67.6239 68.92H67.3039C65.6772 68.8667 64.1972 68.4133 62.8639 67.56C61.5306 66.68 60.5306 65.5067 59.8639 64.04C59.7839 63.88 59.7439 63.6533 59.7439 63.36C59.7439 63.0667 59.8372 62.7733 60.0239 62.48C60.2106 62.1867 60.4906 61.96 60.8639 61.8C60.9172 61.7467 61.0772 61.72 61.3439 61.72C61.6639 61.72 61.9572 61.8 62.2239 61.96C62.5172 62.12 62.7306 62.3467 62.8639 62.64C63.2906 63.5733 63.9039 64.3067 64.7039 64.84C65.5306 65.3467 66.4506 65.6133 67.4639 65.64H67.6639C69.4239 65.64 70.8239 65.0933 71.8639 64C72.9306 62.9867 73.4639 61.7867 73.4639 60.4V60.24C73.4106 59.6267 73.1439 59.0533 72.6639 58.52C72.2106 57.96 71.6639 57.4667 71.0239 57.04C70.4106 56.5867 69.7706 56.2 69.1039 55.88C68.4372 55.56 67.8772 55.3333 67.4239 55.2L67.4639 55.24C67.2506 55.16 67.1039 55.12 67.0239 55.12C63.2106 53.7333 61.3039 51.3067 61.3039 47.84V47.52C61.3572 46.56 61.5972 45.6667 62.0239 44.84C62.4506 44.0133 63.0639 43.2933 63.8639 42.68C64.5572 42.12 65.3572 41.6933 66.2639 41.4C67.1706 41.1067 68.1306 40.96 69.1439 40.96H69.5439C70.3172 40.9867 71.0906 41.1467 71.8639 41.44C72.6639 41.7333 73.3972 42.12 74.0639 42.6C74.1972 42.7867 74.3439 43.0133 74.5039 43.28C74.6906 43.52 74.7839 43.7333 74.7839 43.92C74.7839 44.32 74.6506 44.6533 74.3839 44.92C74.0372 45.3467 73.5972 45.56 73.0639 45.56C72.9306 45.56 72.7706 45.5467 72.5839 45.52C72.3972 45.4667 72.2372 45.3733 72.1039 45.24C71.7306 44.9733 71.2906 44.7467 70.7839 44.56C70.3039 44.3733 69.8372 44.2667 69.3839 44.24H69.0639C67.7839 44.24 66.7172 44.56 65.8639 45.2C65.0106 45.84 64.5706 46.6667 64.5439 47.68V47.84C64.5439 48.5067 64.6506 49.0667 64.8639 49.52C65.0772 49.9733 65.3572 50.36 65.7039 50.68C66.0772 51 66.4772 51.28 66.9039 51.52C67.3572 51.7333 67.8239 51.9333 68.3039 52.12L68.3439 52.2ZM91.1252 52.2C91.3118 52.2533 91.6318 52.3733 92.0852 52.56C92.5385 52.7467 93.0585 53 93.6452 53.32C94.2318 53.6133 94.8452 53.9867 95.4852 54.44C96.1252 54.8667 96.7252 55.36 97.2852 55.92C97.8452 56.48 98.3252 57.1067 98.7252 57.8C99.1252 58.4667 99.3785 59.2 99.4852 60V60.4C99.4852 61.4933 99.2718 62.56 98.8452 63.6C98.4185 64.6133 97.8185 65.5067 97.0452 66.28C96.1918 67.1333 95.1918 67.7867 94.0452 68.24C92.8985 68.6933 91.6852 68.92 90.4052 68.92H90.0852C88.4585 68.8667 86.9785 68.4133 85.6452 67.56C84.3118 66.68 83.3118 65.5067 82.6452 64.04C82.5652 63.88 82.5252 63.6533 82.5252 63.36C82.5252 63.0667 82.6185 62.7733 82.8052 62.48C82.9918 62.1867 83.2718 61.96 83.6452 61.8C83.6985 61.7467 83.8585 61.72 84.1252 61.72C84.4452 61.72 84.7385 61.8 85.0052 61.96C85.2985 62.12 85.5118 62.3467 85.6452 62.64C86.0718 63.5733 86.6852 64.3067 87.4852 64.84C88.3118 65.3467 89.2318 65.6133 90.2452 65.64H90.4452C92.2052 65.64 93.6052 65.0933 94.6452 64C95.7118 62.9867 96.2452 61.7867 96.2452 60.4V60.24C96.1918 59.6267 95.9252 59.0533 95.4452 58.52C94.9918 57.96 94.4452 57.4667 93.8052 57.04C93.1918 56.5867 92.5518 56.2 91.8852 55.88C91.2185 55.56 90.6585 55.3333 90.2052 55.2L90.2452 55.24C90.0318 55.16 89.8852 55.12 89.8052 55.12C85.9918 53.7333 84.0852 51.3067 84.0852 47.84V47.52C84.1385 46.56 84.3785 45.6667 84.8052 44.84C85.2318 44.0133 85.8452 43.2933 86.6452 42.68C87.3385 42.12 88.1385 41.6933 89.0452 41.4C89.9518 41.1067 90.9118 40.96 91.9252 40.96H92.3252C93.0985 40.9867 93.8718 41.1467 94.6452 41.44C95.4452 41.7333 96.1785 42.12 96.8452 42.6C96.9785 42.7867 97.1252 43.0133 97.2852 43.28C97.4718 43.52 97.5652 43.7333 97.5652 43.92C97.5652 44.32 97.4318 44.6533 97.1652 44.92C96.8185 45.3467 96.3785 45.56 95.8452 45.56C95.7118 45.56 95.5518 45.5467 95.3652 45.52C95.1785 45.4667 95.0185 45.3733 94.8852 45.24C94.5118 44.9733 94.0718 44.7467 93.5652 44.56C93.0852 44.3733 92.6185 44.2667 92.1652 44.24H91.8452C90.5652 44.24 89.4985 44.56 88.6452 45.2C87.7918 45.84 87.3518 46.6667 87.3252 47.68V47.84C87.3252 48.5067 87.4318 49.0667 87.6452 49.52C87.8585 49.9733 88.1385 50.36 88.4852 50.68C88.8585 51 89.2585 51.28 89.6852 51.52C90.1385 51.7333 90.6052 51.9333 91.0852 52.12L91.1252 52.2ZM118.546 69C116.706 69 114.973 68.64 113.346 67.92C111.72 67.1733 110.293 66.1733 109.066 64.92C107.866 63.64 106.906 62.1467 106.186 60.44C105.493 58.7333 105.146 56.92 105.146 55C105.146 53.08 105.493 51.28 106.186 49.6C106.906 47.8933 107.866 46.4 109.066 45.12C110.293 43.84 111.72 42.84 113.346 42.12C114.973 41.3733 116.706 41 118.546 41C120.386 41 122.12 41.3733 123.746 42.12C125.373 42.84 126.786 43.84 127.986 45.12C129.186 46.4 130.133 47.8933 130.826 49.6C131.546 51.28 131.906 53.08 131.906 55C131.906 56.92 131.546 58.7333 130.826 60.44C130.133 62.1467 129.186 63.64 127.986 64.92C126.786 66.1733 125.373 67.1733 123.746 67.92C122.12 68.64 120.386 69 118.546 69ZM118.546 44.28C117.133 44.28 115.813 44.56 114.586 45.12C113.36 45.68 112.293 46.44 111.386 47.4C110.48 48.36 109.76 49.4933 109.226 50.8C108.693 52.1067 108.426 53.5067 108.426 55C108.426 56.4933 108.693 57.8933 109.226 59.2C109.76 60.5067 110.48 61.64 111.386 62.6C112.293 63.56 113.36 64.32 114.586 64.88C115.813 65.44 117.133 65.72 118.546 65.72C119.933 65.72 121.24 65.44 122.466 64.88C123.693 64.32 124.76 63.56 125.666 62.6C126.6 61.64 127.32 60.5067 127.826 59.2C128.36 57.8933 128.626 56.4933 128.626 55C128.626 53.5067 128.36 52.1067 127.826 50.8C127.32 49.4933 126.6 48.36 125.666 47.4C124.76 46.44 123.693 45.68 122.466 45.12C121.24 44.56 119.933 44.28 118.546 44.28ZM144.344 52.2C144.531 52.2533 144.851 52.3733 145.304 52.56C145.757 52.7467 146.277 53 146.864 53.32C147.451 53.6133 148.064 53.9867 148.704 54.44C149.344 54.8667 149.944 55.36 150.504 55.92C151.064 56.48 151.544 57.1067 151.944 57.8C152.344 58.4667 152.597 59.2 152.704 60V60.4C152.704 61.4933 152.491 62.56 152.064 63.6C151.637 64.6133 151.037 65.5067 150.264 66.28C149.411 67.1333 148.411 67.7867 147.264 68.24C146.117 68.6933 144.904 68.92 143.624 68.92H143.304C141.677 68.8667 140.197 68.4133 138.864 67.56C137.531 66.68 136.531 65.5067 135.864 64.04C135.784 63.88 135.744 63.6533 135.744 63.36C135.744 63.0667 135.837 62.7733 136.024 62.48C136.211 62.1867 136.491 61.96 136.864 61.8C136.917 61.7467 137.077 61.72 137.344 61.72C137.664 61.72 137.957 61.8 138.224 61.96C138.517 62.12 138.731 62.3467 138.864 62.64C139.291 63.5733 139.904 64.3067 140.704 64.84C141.531 65.3467 142.451 65.6133 143.464 65.64H143.664C145.424 65.64 146.824 65.0933 147.864 64C148.931 62.9867 149.464 61.7867 149.464 60.4V60.24C149.411 59.6267 149.144 59.0533 148.664 58.52C148.211 57.96 147.664 57.4667 147.024 57.04C146.411 56.5867 145.771 56.2 145.104 55.88C144.437 55.56 143.877 55.3333 143.424 55.2L143.464 55.24C143.251 55.16 143.104 55.12 143.024 55.12C139.211 53.7333 137.304 51.3067 137.304 47.84V47.52C137.357 46.56 137.597 45.6667 138.024 44.84C138.451 44.0133 139.064 43.2933 139.864 42.68C140.557 42.12 141.357 41.6933 142.264 41.4C143.171 41.1067 144.131 40.96 145.144 40.96H145.544C146.317 40.9867 147.091 41.1467 147.864 41.44C148.664 41.7333 149.397 42.12 150.064 42.6C150.197 42.7867 150.344 43.0133 150.504 43.28C150.691 43.52 150.784 43.7333 150.784 43.92C150.784 44.32 150.651 44.6533 150.384 44.92C150.037 45.3467 149.597 45.56 149.064 45.56C148.931 45.56 148.771 45.5467 148.584 45.52C148.397 45.4667 148.237 45.3733 148.104 45.24C147.731 44.9733 147.291 44.7467 146.784 44.56C146.304 44.3733 145.837 44.2667 145.384 44.24H145.064C143.784 44.24 142.717 44.56 141.864 45.2C141.011 45.84 140.571 46.6667 140.544 47.68V47.84C140.544 48.5067 140.651 49.0667 140.864 49.52C141.077 49.9733 141.357 50.36 141.704 50.68C142.077 51 142.477 51.28 142.904 51.52C143.357 51.7333 143.824 51.9333 144.304 52.12L144.344 52.2ZM172.828 69C172.375 69 171.988 68.84 171.668 68.52C171.375 68.2 171.228 67.8267 171.228 67.4V42.6C171.228 42.1733 171.375 41.8 171.668 41.48C171.988 41.16 172.375 41 172.828 41H179.588C179.722 41 180.228 41.0667 181.108 41.2C181.988 41.3067 182.975 41.6133 184.068 42.12H184.028C185.468 42.8933 186.602 43.9733 187.428 45.36C188.255 46.72 188.668 48.28 188.668 50.04C188.668 50.12 188.655 50.2933 188.628 50.56C188.628 50.8267 188.588 51.1733 188.508 51.6C188.428 52 188.308 52.4667 188.148 53C188.015 53.5067 187.815 54.0267 187.548 54.56V54.52C186.775 56.0133 185.708 57.16 184.348 57.96C182.988 58.7333 181.402 59.12 179.588 59.12H174.468V67.4C174.468 67.8267 174.308 68.2 173.988 68.52C173.668 68.84 173.282 69 172.828 69ZM174.468 55.84H179.588C180.788 55.84 181.802 55.6133 182.628 55.16C183.455 54.7067 184.108 54.0533 184.588 53.2C184.775 52.8533 184.922 52.5067 185.028 52.16C185.135 51.7867 185.215 51.4533 185.268 51.16C185.322 50.84 185.348 50.5867 185.348 50.4C185.375 50.1867 185.388 50.0667 185.388 50.04C185.388 47.6667 184.442 45.9867 182.548 45C182.175 44.8133 181.815 44.68 181.468 44.6C181.122 44.4933 180.802 44.4133 180.508 44.36C180.188 44.3067 179.882 44.28 179.588 44.28H174.468V55.84ZM212.787 66.76C212.84 66.9733 212.867 67.1867 212.867 67.4C212.867 67.8 212.72 68.1733 212.427 68.52C212.16 68.84 211.774 69 211.267 69C210.974 69 210.667 68.8933 210.347 68.68C210.054 68.44 209.84 68.1733 209.707 67.88V67.92L207.667 62.84H195.027C194.734 63.6133 194.4 64.4667 194.027 65.4C193.654 66.3067 193.307 67.1467 192.987 67.92C192.854 68.1867 192.627 68.44 192.307 68.68C192.014 68.8933 191.734 69 191.467 69C190.987 69 190.6 68.8267 190.307 68.48C190.014 68.1333 189.867 67.7733 189.867 67.4C189.867 67.1867 189.894 66.9733 189.947 66.76L197.747 47.16L199.827 42.08V42.12C199.96 41.8267 200.16 41.5733 200.427 41.36C200.72 41.12 201.04 41 201.387 41C201.68 41 201.974 41.12 202.267 41.36C202.56 41.5733 202.774 41.8267 202.907 42.12V42.08L212.787 66.76ZM206.307 59.56L201.387 47L196.387 59.56H206.307ZM235.71 66.48L235.67 66.44C235.724 66.6 235.777 66.76 235.83 66.92C235.884 67.08 235.91 67.24 235.91 67.4C235.91 67.64 235.83 67.8933 235.67 68.16C235.537 68.4267 235.35 68.64 235.11 68.8C234.897 68.9333 234.63 69 234.31 69C233.644 69 233.164 68.7467 232.87 68.24L227.15 59.12H221.71V67.4C221.71 67.8267 221.55 68.2 221.23 68.52C220.91 68.84 220.524 69 220.07 69C219.617 69 219.23 68.84 218.91 68.52C218.617 68.2 218.47 67.8267 218.47 67.4V42.6C218.47 42.1733 218.617 41.8 218.91 41.48C219.23 41.16 219.617 41 220.07 41H226.83C226.964 41 227.47 41.0667 228.35 41.2C229.23 41.3067 230.217 41.6133 231.31 42.12H231.27C232.71 42.8933 233.844 43.9733 234.67 45.36C235.497 46.72 235.91 48.28 235.91 50.04C235.91 50.12 235.897 50.2933 235.87 50.56C235.87 50.8267 235.83 51.1733 235.75 51.6C235.67 52 235.55 52.4667 235.39 53C235.257 53.5067 235.057 54.0267 234.79 54.56C234.417 55.3333 233.87 56.04 233.15 56.68C232.457 57.32 231.63 57.9067 230.67 58.44L235.71 66.48ZM221.71 55.84H226.83C228.03 55.84 229.044 55.6133 229.87 55.16C230.697 54.7067 231.35 54.0533 231.83 53.2C232.017 52.8533 232.164 52.5067 232.27 52.16C232.377 51.7867 232.457 51.4533 232.51 51.16C232.564 50.84 232.59 50.5867 232.59 50.4C232.617 50.1867 232.63 50.0667 232.63 50.04C232.63 47.6667 231.684 45.9867 229.79 45C229.417 44.8133 229.057 44.68 228.71 44.6C228.364 44.4933 228.044 44.4133 227.75 44.36C227.43 44.3067 227.124 44.28 226.83 44.28H221.71V55.84ZM260.76 64.44C261.08 64.3067 261.346 64.24 261.56 64.24C261.853 64.24 262.133 64.32 262.4 64.48C262.666 64.6133 262.866 64.8267 263 65.12C263.213 65.4933 263.24 65.9067 263.08 66.36C262.946 66.8133 262.706 67.1467 262.36 67.36L262.4 67.32C261.386 67.8267 260.293 68.24 259.12 68.56C257.973 68.8533 256.826 69 255.68 69C253.76 69 251.946 68.64 250.24 67.92C248.533 67.1733 247.04 66.1733 245.76 64.92C244.506 63.64 243.506 62.1467 242.76 60.44C242.04 58.7333 241.68 56.92 241.68 55C241.68 53.08 242.04 51.28 242.76 49.6C243.506 47.8933 244.506 46.4 245.76 45.12C247.04 43.84 248.533 42.84 250.24 42.12C251.946 41.3733 253.76 41 255.68 41C256.826 41 257.973 41.1733 259.12 41.52C260.293 41.84 261.386 42.2267 262.4 42.68L262.36 42.64C262.733 42.88 262.986 43.2267 263.12 43.68C263.28 44.1067 263.24 44.52 263 44.92C262.706 45.48 262.226 45.76 261.56 45.76C261.293 45.76 261.026 45.6933 260.76 45.56H260.8C260.08 45.16 259.266 44.8533 258.36 44.64C257.48 44.4 256.586 44.28 255.68 44.28C254.213 44.28 252.826 44.56 251.52 45.12C250.24 45.68 249.106 46.44 248.12 47.4C247.16 48.36 246.386 49.4933 245.8 50.8C245.24 52.1067 244.96 53.5067 244.96 55C244.96 56.4933 245.24 57.8933 245.8 59.2C246.386 60.5067 247.16 61.64 248.12 62.6C249.106 63.56 250.24 64.32 251.52 64.88C252.826 65.44 254.213 65.72 255.68 65.72C256.613 65.72 257.506 65.6267 258.36 65.44C259.24 65.2267 260.053 64.8933 260.8 64.44H260.76ZM284.117 65.72C284.57 65.72 284.957 65.88 285.277 66.2C285.597 66.52 285.757 66.92 285.757 67.4C285.757 67.8267 285.597 68.2 285.277 68.52C284.957 68.84 284.57 69 284.117 69H270.517C270.063 69 269.677 68.84 269.357 68.52C269.037 68.2 268.877 67.8267 268.877 67.4V42.6C268.877 42.1733 269.037 41.8 269.357 41.48C269.677 41.16 270.063 41 270.517 41H284.117C284.57 41 284.957 41.16 285.277 41.48C285.597 41.8 285.757 42.1733 285.757 42.6C285.757 43.08 285.597 43.48 285.277 43.8C284.957 44.12 284.57 44.28 284.117 44.28H272.157V53.4H281.637C282.09 53.4 282.463 53.56 282.757 53.88C283.077 54.1733 283.237 54.5467 283.237 55C283.237 55.4533 283.077 55.84 282.757 56.16C282.463 56.4533 282.09 56.6 281.637 56.6H272.157V65.72H284.117ZM293.34 69C292.913 69 292.54 68.84 292.22 68.52C291.9 68.2 291.74 67.8267 291.74 67.4V42.6C291.74 42.1733 291.9 41.8 292.22 41.48C292.54 41.16 292.913 41 293.34 41C293.793 41 294.18 41.16 294.5 41.48C294.847 41.8 295.02 42.1733 295.02 42.6V67.4C295.02 67.8267 294.847 68.2 294.5 68.52C294.18 68.84 293.793 69 293.34 69ZM318.671 66.48L318.631 66.44C318.685 66.6 318.738 66.76 318.791 66.92C318.845 67.08 318.871 67.24 318.871 67.4C318.871 67.64 318.791 67.8933 318.631 68.16C318.498 68.4267 318.311 68.64 318.071 68.8C317.858 68.9333 317.591 69 317.271 69C316.605 69 316.125 68.7467 315.831 68.24L310.111 59.12H304.671V67.4C304.671 67.8267 304.511 68.2 304.191 68.52C303.871 68.84 303.485 69 303.031 69C302.578 69 302.191 68.84 301.871 68.52C301.578 68.2 301.431 67.8267 301.431 67.4V42.6C301.431 42.1733 301.578 41.8 301.871 41.48C302.191 41.16 302.578 41 303.031 41H309.791C309.925 41 310.431 41.0667 311.311 41.2C312.191 41.3067 313.178 41.6133 314.271 42.12H314.231C315.671 42.8933 316.805 43.9733 317.631 45.36C318.458 46.72 318.871 48.28 318.871 50.04C318.871 50.12 318.858 50.2933 318.831 50.56C318.831 50.8267 318.791 51.1733 318.711 51.6C318.631 52 318.511 52.4667 318.351 53C318.218 53.5067 318.018 54.0267 317.751 54.56C317.378 55.3333 316.831 56.04 316.111 56.68C315.418 57.32 314.591 57.9067 313.631 58.44L318.671 66.48ZM304.671 55.84H309.791C310.991 55.84 312.005 55.6133 312.831 55.16C313.658 54.7067 314.311 54.0533 314.791 53.2C314.978 52.8533 315.125 52.5067 315.231 52.16C315.338 51.7867 315.418 51.4533 315.471 51.16C315.525 50.84 315.551 50.5867 315.551 50.4C315.578 50.1867 315.591 50.0667 315.591 50.04C315.591 47.6667 314.645 45.9867 312.751 45C312.378 44.8133 312.018 44.68 311.671 44.6C311.325 44.4933 311.005 44.4133 310.711 44.36C310.391 44.3067 310.085 44.28 309.791 44.28H304.671V55.84ZM337.414 69C335.574 69 333.84 68.64 332.214 67.92C330.587 67.1733 329.16 66.1733 327.934 64.92C326.734 63.64 325.774 62.1467 325.054 60.44C324.36 58.7333 324.014 56.92 324.014 55C324.014 53.08 324.36 51.28 325.054 49.6C325.774 47.8933 326.734 46.4 327.934 45.12C329.16 43.84 330.587 42.84 332.214 42.12C333.84 41.3733 335.574 41 337.414 41C339.254 41 340.987 41.3733 342.614 42.12C344.24 42.84 345.654 43.84 346.854 45.12C348.054 46.4 349 47.8933 349.694 49.6C350.414 51.28 350.774 53.08 350.774 55C350.774 56.92 350.414 58.7333 349.694 60.44C349 62.1467 348.054 63.64 346.854 64.92C345.654 66.1733 344.24 67.1733 342.614 67.92C340.987 68.64 339.254 69 337.414 69ZM337.414 44.28C336 44.28 334.68 44.56 333.454 45.12C332.227 45.68 331.16 46.44 330.254 47.4C329.347 48.36 328.627 49.4933 328.094 50.8C327.56 52.1067 327.294 53.5067 327.294 55C327.294 56.4933 327.56 57.8933 328.094 59.2C328.627 60.5067 329.347 61.64 330.254 62.6C331.16 63.56 332.227 64.32 333.454 64.88C334.68 65.44 336 65.72 337.414 65.72C338.8 65.72 340.107 65.44 341.334 64.88C342.56 64.32 343.627 63.56 344.534 62.6C345.467 61.64 346.187 60.5067 346.694 59.2C347.227 57.8933 347.494 56.4933 347.494 55C347.494 53.5067 347.227 52.1067 346.694 50.8C346.187 49.4933 345.467 48.36 344.534 47.4C343.627 46.44 342.56 45.68 341.334 45.12C340.107 44.56 338.8 44.28 337.414 44.28ZM363.211 52.2C363.398 52.2533 363.718 52.3733 364.171 52.56C364.624 52.7467 365.144 53 365.731 53.32C366.318 53.6133 366.931 53.9867 367.571 54.44C368.211 54.8667 368.811 55.36 369.371 55.92C369.931 56.48 370.411 57.1067 370.811 57.8C371.211 58.4667 371.464 59.2 371.571 60V60.4C371.571 61.4933 371.358 62.56 370.931 63.6C370.504 64.6133 369.904 65.5067 369.131 66.28C368.278 67.1333 367.278 67.7867 366.131 68.24C364.984 68.6933 363.771 68.92 362.491 68.92H362.171C360.544 68.8667 359.064 68.4133 357.731 67.56C356.398 66.68 355.398 65.5067 354.731 64.04C354.651 63.88 354.611 63.6533 354.611 63.36C354.611 63.0667 354.704 62.7733 354.891 62.48C355.078 62.1867 355.358 61.96 355.731 61.8C355.784 61.7467 355.944 61.72 356.211 61.72C356.531 61.72 356.824 61.8 357.091 61.96C357.384 62.12 357.598 62.3467 357.731 62.64C358.158 63.5733 358.771 64.3067 359.571 64.84C360.398 65.3467 361.318 65.6133 362.331 65.64H362.531C364.291 65.64 365.691 65.0933 366.731 64C367.798 62.9867 368.331 61.7867 368.331 60.4V60.24C368.278 59.6267 368.011 59.0533 367.531 58.52C367.078 57.96 366.531 57.4667 365.891 57.04C365.278 56.5867 364.638 56.2 363.971 55.88C363.304 55.56 362.744 55.3333 362.291 55.2L362.331 55.24C362.118 55.16 361.971 55.12 361.891 55.12C358.078 53.7333 356.171 51.3067 356.171 47.84V47.52C356.224 46.56 356.464 45.6667 356.891 44.84C357.318 44.0133 357.931 43.2933 358.731 42.68C359.424 42.12 360.224 41.6933 361.131 41.4C362.038 41.1067 362.998 40.96 364.011 40.96H364.411C365.184 40.9867 365.958 41.1467 366.731 41.44C367.531 41.7333 368.264 42.12 368.931 42.6C369.064 42.7867 369.211 43.0133 369.371 43.28C369.558 43.52 369.651 43.7333 369.651 43.92C369.651 44.32 369.518 44.6533 369.251 44.92C368.904 45.3467 368.464 45.56 367.931 45.56C367.798 45.56 367.638 45.5467 367.451 45.52C367.264 45.4667 367.104 45.3733 366.971 45.24C366.598 44.9733 366.158 44.7467 365.651 44.56C365.171 44.3733 364.704 44.2667 364.251 44.24H363.931C362.651 44.24 361.584 44.56 360.731 45.2C359.878 45.84 359.438 46.6667 359.411 47.68V47.84C359.411 48.5067 359.518 49.0667 359.731 49.52C359.944 49.9733 360.224 50.36 360.571 50.68C360.944 51 361.344 51.28 361.771 51.52C362.224 51.7333 362.691 51.9333 363.171 52.12L363.211 52.2Z" fill="black"/>
<path d="M296.3 26.0656C295.296 25.4088 295.012 24.0601 295.708 23.0835C302.346 13.7669 311.738 6.73604 322.588 2.99863C334.123 -0.974885 346.652 -1.00006 358.203 2.92708C369.755 6.85421 379.672 14.5107 386.396 24.6917C393.119 34.8727 396.266 47.0002 395.342 59.1657C394.418 71.3313 389.475 82.8443 381.291 91.8929C373.107 100.942 362.147 107.012 350.135 109.15C338.123 111.287 325.741 109.369 314.938 103.699C304.777 98.3658 296.556 89.997 291.401 79.7846C290.86 78.7141 291.345 77.4239 292.436 76.9262V76.9262C293.527 76.4285 294.811 76.9119 295.355 77.9806C300.108 87.3173 307.649 94.9684 316.957 99.8541C326.907 105.077 338.311 106.843 349.374 104.874C360.438 102.906 370.533 97.3143 378.07 88.98C385.608 80.6458 390.161 70.0419 391.012 58.8368C391.863 47.6318 388.964 36.4618 382.772 27.0847C376.579 17.7075 367.445 10.6556 356.806 7.03851C346.166 3.42144 334.626 3.44462 324.002 7.10441C314.063 10.5281 305.452 16.9524 299.344 25.4641C298.645 26.4383 297.303 26.7223 296.3 26.0656V26.0656Z" fill="#CD8C52"/>
</svg>
