<svg width="336" height="61" viewBox="0 0 336 61" fill="none" xmlns="http://www.w3.org/2000/svg">
<path d="M26.475 29.775C27.2083 30.2417 27.7667 30.8583 28.15 31.625C28.5333 32.3917 28.725 33.2583 28.725 34.225C28.725 35.0417 28.5667 35.775 28.25 36.425C27.95 37.075 27.5583 37.6333 27.075 38.1C26.6083 38.55 26.0833 38.9 25.5 39.15C24.9167 39.3833 24.35 39.5 23.8 39.5H18.4C18.1167 39.5 17.875 39.4 17.675 39.2C17.475 39 17.375 38.7667 17.375 38.5V23C17.375 22.7333 17.475 22.5 17.675 22.3C17.875 22.1 18.1167 22 18.4 22H22.675C22.7417 22 22.9917 22.0333 23.425 22.1C23.8583 22.15 24.3333 22.3083 24.85 22.575C25.6 22.9583 26.1667 23.4833 26.55 24.15C26.95 24.8167 27.15 25.6 27.15 26.5C27.15 27.5333 26.8833 28.4333 26.35 29.2L26.475 29.775ZM19.425 28.975H22.25C22.3833 28.975 22.6 28.9583 22.9 28.925C23.2167 28.8917 23.5333 28.8 23.85 28.65C24.1833 28.4833 24.475 28.2333 24.725 27.9C24.975 27.5667 25.1 27.1 25.1 26.5C25.1 25.95 25.0083 25.5167 24.825 25.2C24.6583 24.8667 24.4583 24.6167 24.225 24.45C23.9917 24.2833 23.75 24.175 23.5 24.125C23.25 24.075 23.0417 24.05 22.875 24.05H19.425V28.975ZM25.25 37.025C25.5667 36.8417 25.8167 36.6333 26 36.4C26.2 36.1667 26.3417 35.925 26.425 35.675C26.525 35.425 26.5833 35.175 26.6 34.925C26.6333 34.675 26.65 34.4417 26.65 34.225C26.65 33.925 26.6 33.5917 26.5 33.225C26.4 32.8583 26.2333 32.5083 26 32.175C25.7667 31.8417 25.45 31.5667 25.05 31.35C24.6667 31.1167 24.1917 31 23.625 31H19.425V37.45H23.625C23.6417 37.45 23.825 37.4333 24.175 37.4C24.525 37.35 24.8833 37.225 25.25 37.025ZM45.5969 37.45C45.8802 37.45 46.1219 37.55 46.3219 37.75C46.5219 37.95 46.6219 38.2 46.6219 38.5C46.6219 38.7667 46.5219 39 46.3219 39.2C46.1219 39.4 45.8802 39.5 45.5969 39.5H37.0969C36.8135 39.5 36.5719 39.4 36.3719 39.2C36.1719 39 36.0719 38.7667 36.0719 38.5V23C36.0719 22.7333 36.1719 22.5 36.3719 22.3C36.5719 22.1 36.8135 22 37.0969 22H45.5969C45.8802 22 46.1219 22.1 46.3219 22.3C46.5219 22.5 46.6219 22.7333 46.6219 23C46.6219 23.3 46.5219 23.55 46.3219 23.75C46.1219 23.95 45.8802 24.05 45.5969 24.05H38.1219V29.75H44.0469C44.3302 29.75 44.5635 29.85 44.7469 30.05C44.9469 30.2333 45.0469 30.4667 45.0469 30.75C45.0469 31.0333 44.9469 31.275 44.7469 31.475C44.5635 31.6583 44.3302 31.75 44.0469 31.75H38.1219V37.45H45.5969ZM54.9613 39.5C54.6947 39.5 54.4613 39.4 54.2613 39.2C54.0613 39 53.9613 38.7667 53.9613 38.5V23C53.9613 22.7333 54.0613 22.5 54.2613 22.3C54.4613 22.1 54.6947 22 54.9613 22H59.4613C59.478 22 59.6697 22.0167 60.0363 22.05C60.4197 22.0667 60.8863 22.1583 61.4363 22.325C61.9863 22.475 62.578 22.725 63.2113 23.075C63.8447 23.425 64.428 23.925 64.9613 24.575C65.4947 25.225 65.9363 26.05 66.2863 27.05C66.653 28.05 66.8363 29.2833 66.8363 30.75C66.8363 32.2167 66.653 33.45 66.2863 34.45C65.9363 35.45 65.4947 36.275 64.9613 36.925C64.428 37.575 63.8447 38.075 63.2113 38.425C62.578 38.775 61.9863 39.0333 61.4363 39.2C60.8863 39.35 60.4197 39.4417 60.0363 39.475C59.6697 39.4917 59.478 39.5 59.4613 39.5H54.9613ZM56.0363 37.45H59.4613C59.4947 37.45 59.5947 37.4417 59.7613 37.425C59.928 37.4083 60.1363 37.375 60.3863 37.325C60.6363 37.2583 60.9197 37.1667 61.2363 37.05C61.553 36.9167 61.878 36.75 62.2113 36.55C63.028 36 63.6613 35.2333 64.1113 34.25C64.5613 33.2667 64.7863 32.1 64.7863 30.75C64.7863 29.35 64.553 28.1583 64.0863 27.175C63.6197 26.1917 62.953 25.425 62.0863 24.875C61.7863 24.675 61.478 24.525 61.1613 24.425C60.8447 24.3083 60.5613 24.225 60.3113 24.175C60.0613 24.125 59.853 24.0917 59.6863 24.075C59.5363 24.0583 59.4613 24.05 59.4613 24.05H56.0363V37.45ZM80.148 39.5C78.9314 39.5 77.8647 39.225 76.948 38.675C76.0314 38.1083 75.323 37.2833 74.823 36.2C74.6397 35.8333 74.498 35.475 74.398 35.125C74.3147 34.7583 74.248 34.4333 74.198 34.15C74.148 33.85 74.1147 33.6083 74.098 33.425C74.098 33.2417 74.098 33.125 74.098 33.075V23C74.098 22.7333 74.198 22.5 74.398 22.3C74.6147 22.1 74.8647 22 75.148 22C75.4147 22 75.648 22.1 75.848 22.3C76.048 22.5 76.148 22.7333 76.148 23V33.075C76.148 33.1417 76.1564 33.3 76.173 33.55C76.2064 33.7833 76.273 34.0667 76.373 34.4C76.473 34.7167 76.6064 35.0583 76.773 35.425C76.9564 35.775 77.1897 36.1 77.473 36.4C77.773 36.7 78.1397 36.95 78.573 37.15C79.023 37.35 79.548 37.45 80.148 37.45C81.0147 37.45 81.7147 37.2583 82.248 36.875C82.7814 36.475 83.1814 36.025 83.448 35.525C83.7314 35.0083 83.9147 34.5167 83.998 34.05C84.098 33.5667 84.148 33.2417 84.148 33.075V23C84.148 22.7333 84.248 22.5 84.448 22.3C84.648 22.1 84.8897 22 85.173 22C85.4564 22 85.6897 22.1 85.873 22.3C86.073 22.5 86.173 22.7333 86.173 23V33.075C86.173 33.125 86.1647 33.2417 86.148 33.425C86.148 33.6083 86.123 33.85 86.073 34.15C86.0397 34.4333 85.973 34.7583 85.873 35.125C85.773 35.475 85.6397 35.8333 85.473 36.2C84.973 37.2833 84.2647 38.1083 83.348 38.675C82.448 39.225 81.3814 39.5 80.148 39.5ZM103.778 22C104.078 22 104.328 22.1 104.528 22.3C104.745 22.5 104.853 22.7333 104.853 23C104.853 23.3 104.745 23.55 104.528 23.75C104.328 23.95 104.078 24.05 103.778 24.05H100.178V38.5C100.178 38.7667 100.078 39 99.8779 39.2C99.6779 39.4 99.4363 39.5 99.1529 39.5C98.8696 39.5 98.6279 39.4 98.4279 39.2C98.2446 39 98.1529 38.7667 98.1529 38.5V24.05H94.5279C94.2446 24.05 94.0029 23.95 93.8029 23.75C93.6029 23.55 93.5029 23.3 93.5029 23C93.5029 22.7333 93.6029 22.5 93.8029 22.3C94.0029 22.1 94.2446 22 94.5279 22H103.778ZM122.45 22C122.75 22 123 22.1 123.2 22.3C123.416 22.5 123.525 22.7333 123.525 23C123.525 23.3 123.416 23.55 123.2 23.75C123 23.95 122.75 24.05 122.45 24.05H118.85V38.5C118.85 38.7667 118.75 39 118.55 39.2C118.35 39.4 118.108 39.5 117.825 39.5C117.541 39.5 117.3 39.4 117.1 39.2C116.916 39 116.825 38.7667 116.825 38.5V24.05H113.2C112.916 24.05 112.675 23.95 112.475 23.75C112.275 23.55 112.175 23.3 112.175 23C112.175 22.7333 112.275 22.5 112.475 22.3C112.675 22.1 112.916 22 113.2 22H122.45ZM131.972 39.5C131.705 39.5 131.472 39.4 131.272 39.2C131.072 39 130.972 38.7667 130.972 38.5V23C130.972 22.7333 131.072 22.5 131.272 22.3C131.472 22.1 131.705 22 131.972 22C132.255 22 132.497 22.1 132.697 22.3C132.913 22.5 133.022 22.7333 133.022 23V38.5C133.022 38.7667 132.913 39 132.697 39.2C132.497 39.4 132.255 39.5 131.972 39.5ZM166.743 38.1C166.777 38.2333 166.793 38.3667 166.793 38.5C166.793 38.75 166.702 38.9833 166.518 39.2C166.352 39.4 166.11 39.5 165.793 39.5C165.61 39.5 165.418 39.4333 165.218 39.3C165.035 39.15 164.902 38.9833 164.818 38.8V38.825L163.543 35.65H155.643C155.46 36.1333 155.252 36.6667 155.018 37.25C154.785 37.8167 154.568 38.3417 154.368 38.825C154.285 38.9917 154.143 39.15 153.943 39.3C153.76 39.4333 153.585 39.5 153.418 39.5C153.118 39.5 152.877 39.3917 152.693 39.175C152.51 38.9583 152.418 38.7333 152.418 38.5C152.418 38.3667 152.435 38.2333 152.468 38.1L157.343 25.85L158.643 22.675V22.7C158.727 22.5167 158.852 22.3583 159.018 22.225C159.202 22.075 159.402 22 159.618 22C159.802 22 159.985 22.075 160.168 22.225C160.352 22.3583 160.485 22.5167 160.568 22.7V22.675L166.743 38.1ZM162.693 33.6L159.618 25.75L156.493 33.6H162.693ZM178.898 39.5C177.681 39.5 176.615 39.225 175.698 38.675C174.781 38.1083 174.073 37.2833 173.573 36.2C173.39 35.8333 173.248 35.475 173.148 35.125C173.065 34.7583 172.998 34.4333 172.948 34.15C172.898 33.85 172.865 33.6083 172.848 33.425C172.848 33.2417 172.848 33.125 172.848 33.075V23C172.848 22.7333 172.948 22.5 173.148 22.3C173.365 22.1 173.615 22 173.898 22C174.165 22 174.398 22.1 174.598 22.3C174.798 22.5 174.898 22.7333 174.898 23V33.075C174.898 33.1417 174.906 33.3 174.923 33.55C174.956 33.7833 175.023 34.0667 175.123 34.4C175.223 34.7167 175.356 35.0583 175.523 35.425C175.706 35.775 175.94 36.1 176.223 36.4C176.523 36.7 176.89 36.95 177.323 37.15C177.773 37.35 178.298 37.45 178.898 37.45C179.765 37.45 180.465 37.2583 180.998 36.875C181.531 36.475 181.931 36.025 182.198 35.525C182.481 35.0083 182.665 34.5167 182.748 34.05C182.848 33.5667 182.898 33.2417 182.898 33.075V23C182.898 22.7333 182.998 22.5 183.198 22.3C183.398 22.1 183.64 22 183.923 22C184.206 22 184.44 22.1 184.623 22.3C184.823 22.5 184.923 22.7333 184.923 23V33.075C184.923 33.125 184.915 33.2417 184.898 33.425C184.898 33.6083 184.873 33.85 184.823 34.15C184.79 34.4333 184.723 34.7583 184.623 35.125C184.523 35.475 184.39 35.8333 184.223 36.2C183.723 37.2833 183.015 38.1083 182.098 38.675C181.198 39.225 180.131 39.5 178.898 39.5ZM202.528 22C202.828 22 203.078 22.1 203.278 22.3C203.495 22.5 203.603 22.7333 203.603 23C203.603 23.3 203.495 23.55 203.278 23.75C203.078 23.95 202.828 24.05 202.528 24.05H198.928V38.5C198.928 38.7667 198.828 39 198.628 39.2C198.428 39.4 198.186 39.5 197.903 39.5C197.62 39.5 197.378 39.4 197.178 39.2C196.995 39 196.903 38.7667 196.903 38.5V24.05H193.278C192.995 24.05 192.753 23.95 192.553 23.75C192.353 23.55 192.253 23.3 192.253 23C192.253 22.7333 192.353 22.5 192.553 22.3C192.753 22.1 192.995 22 193.278 22H202.528ZM217.418 39.5C216.268 39.5 215.185 39.275 214.168 38.825C213.151 38.3583 212.26 37.7333 211.493 36.95C210.743 36.15 210.143 35.2167 209.693 34.15C209.26 33.0833 209.043 31.95 209.043 30.75C209.043 29.55 209.26 28.425 209.693 27.375C210.143 26.3083 210.743 25.375 211.493 24.575C212.26 23.775 213.151 23.15 214.168 22.7C215.185 22.2333 216.268 22 217.418 22C218.568 22 219.651 22.2333 220.668 22.7C221.685 23.15 222.568 23.775 223.318 24.575C224.068 25.375 224.66 26.3083 225.093 27.375C225.543 28.425 225.768 29.55 225.768 30.75C225.768 31.95 225.543 33.0833 225.093 34.15C224.66 35.2167 224.068 36.15 223.318 36.95C222.568 37.7333 221.685 38.3583 220.668 38.825C219.651 39.275 218.568 39.5 217.418 39.5ZM217.418 24.05C216.535 24.05 215.71 24.225 214.943 24.575C214.176 24.925 213.51 25.4 212.943 26C212.376 26.6 211.926 27.3083 211.593 28.125C211.26 28.9417 211.093 29.8167 211.093 30.75C211.093 31.6833 211.26 32.5583 211.593 33.375C211.926 34.1917 212.376 34.9 212.943 35.5C213.51 36.1 214.176 36.575 214.943 36.925C215.71 37.275 216.535 37.45 217.418 37.45C218.285 37.45 219.101 37.275 219.868 36.925C220.635 36.575 221.301 36.1 221.868 35.5C222.451 34.9 222.901 34.1917 223.218 33.375C223.551 32.5583 223.718 31.6833 223.718 30.75C223.718 29.8167 223.551 28.9417 223.218 28.125C222.901 27.3083 222.451 26.6 221.868 26C221.301 25.4 220.635 24.925 219.868 24.575C219.101 24.225 218.285 24.05 217.418 24.05ZM247.743 39.5C247.476 39.5 247.243 39.4 247.043 39.2C246.843 39 246.743 38.7667 246.743 38.5V26.1L241.618 32.9C241.434 33.1833 241.159 33.325 240.793 33.325C240.643 33.325 240.493 33.2917 240.343 33.225C240.193 33.1417 240.068 33.0333 239.968 32.9L234.893 26.1V38.5C234.893 38.7667 234.784 39 234.568 39.2C234.368 39.4 234.126 39.5 233.843 39.5C233.559 39.5 233.318 39.4 233.118 39.2C232.918 39 232.818 38.7667 232.818 38.5V23C232.818 22.7333 232.918 22.5 233.118 22.3C233.334 22.1 233.584 22 233.868 22C234.018 22 234.159 22.0417 234.293 22.125C234.443 22.1917 234.568 22.2833 234.668 22.4L240.793 30.6L246.943 22.4C247.159 22.1333 247.426 22 247.743 22C248.043 22 248.284 22.1 248.468 22.3C248.668 22.5 248.768 22.7333 248.768 23V38.5C248.768 38.7667 248.668 39 248.468 39.2C248.268 39.4 248.026 39.5 247.743 39.5ZM270.235 38.1C270.268 38.2333 270.285 38.3667 270.285 38.5C270.285 38.75 270.193 38.9833 270.01 39.2C269.843 39.4 269.601 39.5 269.285 39.5C269.101 39.5 268.91 39.4333 268.71 39.3C268.526 39.15 268.393 38.9833 268.31 38.8V38.825L267.035 35.65H259.135C258.951 36.1333 258.743 36.6667 258.51 37.25C258.276 37.8167 258.06 38.3417 257.86 38.825C257.776 38.9917 257.635 39.15 257.435 39.3C257.251 39.4333 257.076 39.5 256.91 39.5C256.61 39.5 256.368 39.3917 256.185 39.175C256.001 38.9583 255.91 38.7333 255.91 38.5C255.91 38.3667 255.926 38.2333 255.96 38.1L260.835 25.85L262.135 22.675V22.7C262.218 22.5167 262.343 22.3583 262.51 22.225C262.693 22.075 262.893 22 263.11 22C263.293 22 263.476 22.075 263.66 22.225C263.843 22.3583 263.976 22.5167 264.06 22.7V22.675L270.235 38.1ZM266.185 33.6L263.11 25.75L259.985 33.6H266.185ZM286.212 23.375C285.262 23.375 284.403 23.5417 283.637 23.875C282.87 24.1917 282.22 24.6667 281.687 25.3C281.153 25.9167 280.745 26.675 280.462 27.575C280.178 28.4583 280.037 29.4583 280.037 30.575C280.037 32.0417 280.262 33.3167 280.712 34.4C281.178 35.4833 281.862 36.3167 282.762 36.9C283.678 37.4833 284.82 37.775 286.187 37.775C286.97 37.775 287.712 37.7083 288.412 37.575C289.112 37.4417 289.795 37.275 290.462 37.075V39.025C289.795 39.275 289.103 39.4583 288.387 39.575C287.687 39.6917 286.845 39.75 285.862 39.75C284.045 39.75 282.528 39.375 281.312 38.625C280.095 37.875 279.178 36.8083 278.562 35.425C277.962 34.0417 277.662 32.4167 277.662 30.55C277.662 29.2 277.845 27.9667 278.212 26.85C278.595 25.7333 279.145 24.7667 279.862 23.95C280.595 23.1333 281.495 22.5083 282.562 22.075C283.628 21.625 284.853 21.4 286.237 21.4C287.153 21.4 288.037 21.4917 288.887 21.675C289.737 21.8583 290.495 22.1167 291.162 22.45L290.262 24.35C289.712 24.1 289.095 23.875 288.412 23.675C287.745 23.475 287.012 23.375 286.212 23.375ZM287.962 42.975C287.962 43.5083 287.82 43.9583 287.537 44.325C287.27 44.7083 286.862 45 286.312 45.2C285.762 45.4 285.078 45.5 284.262 45.5C284.012 45.5 283.77 45.4833 283.537 45.45C283.32 45.4333 283.145 45.4083 283.012 45.375V44C283.162 44.0333 283.362 44.0583 283.612 44.075C283.862 44.1083 284.103 44.125 284.337 44.125C284.937 44.125 285.395 44.0417 285.712 43.875C286.028 43.725 286.187 43.4417 286.187 43.025C286.187 42.5917 285.962 42.275 285.512 42.075C285.078 41.875 284.545 41.7333 283.912 41.65L284.987 39.5H286.437L285.787 40.825C286.187 40.9083 286.553 41.0333 286.887 41.2C287.22 41.3833 287.478 41.6167 287.662 41.9C287.862 42.1833 287.962 42.5417 287.962 42.975ZM306.608 19.525C306.358 19.525 306.108 19.4833 305.858 19.4C305.608 19.3167 305.383 19.2167 305.183 19.1C304.983 18.9833 304.783 18.9 304.583 18.85C304.383 18.7833 304.116 18.75 303.783 18.75C303.649 18.9833 303.491 19.175 303.308 19.325C303.124 19.4583 302.941 19.525 302.758 19.525C302.474 19.525 302.233 19.425 302.033 19.225C301.833 19.025 301.733 18.7833 301.733 18.5C301.733 18.35 301.766 18.175 301.833 17.975C301.916 17.7583 302.058 17.5583 302.258 17.375C302.458 17.175 302.724 17.0167 303.058 16.9C303.391 16.7667 303.816 16.7 304.333 16.7C304.583 16.7 304.816 16.7417 305.033 16.825C305.266 16.8917 305.474 16.9833 305.658 17.1C305.691 17.1167 305.724 17.1333 305.758 17.15C305.791 17.1667 305.791 17.1583 305.758 17.125C305.958 17.225 306.141 17.3083 306.308 17.375C306.491 17.4417 306.774 17.475 307.158 17.475C307.424 16.9583 307.766 16.7 308.183 16.7C308.466 16.7 308.699 16.8 308.883 17C309.083 17.2 309.183 17.4417 309.183 17.725C309.183 18.375 308.933 18.8417 308.433 19.125C307.949 19.3917 307.341 19.525 306.608 19.525ZM312.608 38.1C312.641 38.2333 312.658 38.3667 312.658 38.5C312.658 38.75 312.566 38.9833 312.383 39.2C312.216 39.4 311.974 39.5 311.658 39.5C311.474 39.5 311.283 39.4333 311.083 39.3C310.899 39.15 310.766 38.9833 310.683 38.8V38.825L309.408 35.65H301.508C301.324 36.1333 301.116 36.6667 300.883 37.25C300.649 37.8167 300.433 38.3417 300.233 38.825C300.149 38.9917 300.008 39.15 299.808 39.3C299.624 39.4333 299.449 39.5 299.283 39.5C298.983 39.5 298.741 39.3917 298.558 39.175C298.374 38.9583 298.283 38.7333 298.283 38.5C298.283 38.3667 298.299 38.2333 298.333 38.1L303.208 25.85L304.508 22.675V22.7C304.591 22.5167 304.716 22.3583 304.883 22.225C305.066 22.075 305.266 22 305.483 22C305.666 22 305.849 22.075 306.033 22.225C306.216 22.3583 306.349 22.5167 306.433 22.7V22.675L312.608 38.1ZM308.558 33.6L305.483 25.75L302.358 33.6H308.558ZM326.378 39.5C325.228 39.5 324.145 39.275 323.128 38.825C322.111 38.3583 321.22 37.7333 320.453 36.95C319.703 36.15 319.103 35.2167 318.653 34.15C318.22 33.0833 318.003 31.95 318.003 30.75C318.003 29.55 318.22 28.425 318.653 27.375C319.103 26.3083 319.703 25.375 320.453 24.575C321.22 23.775 322.111 23.15 323.128 22.7C324.145 22.2333 325.228 22 326.378 22C327.528 22 328.611 22.2333 329.628 22.7C330.645 23.15 331.528 23.775 332.278 24.575C333.028 25.375 333.62 26.3083 334.053 27.375C334.503 28.425 334.728 29.55 334.728 30.75C334.728 31.95 334.503 33.0833 334.053 34.15C333.62 35.2167 333.028 36.15 332.278 36.95C331.528 37.7333 330.645 38.3583 329.628 38.825C328.611 39.275 327.528 39.5 326.378 39.5ZM326.378 24.05C325.495 24.05 324.67 24.225 323.903 24.575C323.136 24.925 322.47 25.4 321.903 26C321.336 26.6 320.886 27.3083 320.553 28.125C320.22 28.9417 320.053 29.8167 320.053 30.75C320.053 31.6833 320.22 32.5583 320.553 33.375C320.886 34.1917 321.336 34.9 321.903 35.5C322.47 36.1 323.136 36.575 323.903 36.925C324.67 37.275 325.495 37.45 326.378 37.45C327.245 37.45 328.061 37.275 328.828 36.925C329.595 36.575 330.261 36.1 330.828 35.5C331.411 34.9 331.861 34.1917 332.178 33.375C332.511 32.5583 332.678 31.6833 332.678 30.75C332.678 29.8167 332.511 28.9417 332.178 28.125C331.861 27.3083 331.411 26.6 330.828 26C330.261 25.4 329.595 24.925 328.828 24.575C328.061 24.225 327.245 24.05 326.378 24.05Z" fill="white"/>
<path d="M50.2502 50.7502C50.782 51.282 50.784 52.1469 50.2286 52.6541C46.1955 56.3368 41.2261 58.8547 35.8527 59.9236C30.0333 61.0811 24.0013 60.487 18.5195 58.2164C13.0377 55.9458 8.35236 52.1006 5.05591 47.1671C1.75947 42.2336 3.65434e-07 36.4334 0 30.5C-3.65434e-07 24.5666 1.75947 18.7664 5.05591 13.8329C8.35235 8.89942 13.0377 5.05424 18.5195 2.78362C24.0013 0.512986 30.0333 -0.081115 35.8527 1.07644C41.2261 2.14528 46.1955 4.66323 50.2286 8.34586C50.784 8.85305 50.782 9.71797 50.2502 10.2498C49.7183 10.7817 48.8581 10.7789 48.3004 10.2742C44.6499 6.97122 40.1663 4.71174 35.3213 3.74801C30.0303 2.69556 24.5459 3.23572 19.5619 5.30018C14.5778 7.36465 10.3179 10.8607 7.32076 15.3462C4.32363 19.8317 2.72391 25.1053 2.72391 30.5C2.72391 35.8947 4.32363 41.1683 7.32076 45.6538C10.3179 50.1393 14.5778 53.6354 19.5619 55.6998C24.5459 57.7643 30.0303 58.3044 35.3213 57.252C40.1663 56.2883 44.6499 54.0288 48.3004 50.7258C48.8581 50.2211 49.7183 50.2183 50.2502 50.7502Z" fill="white"/>
</svg>
