<svg width="1078" height="1024" viewBox="0 0 1078 1024" fill="none" xmlns="http://www.w3.org/2000/svg">
<path d="M854.066 854.066C865.097 865.097 865.147 883.045 853.525 893.451C785.366 954.477 701.952 996.247 611.886 1014.16C512.568 1033.92 409.622 1023.78 316.066 985.026C222.51 946.274 142.547 880.65 86.2876 796.452C30.0283 712.254 6.23673e-06 613.264 0 512C-6.23673e-06 410.736 30.0283 311.746 86.2875 227.548C142.547 143.35 222.51 77.7258 316.066 38.9737C409.622 0.221623 512.568 -9.9177 611.886 9.83792C701.952 27.7531 785.366 69.523 853.525 130.549C865.147 140.955 865.097 158.903 854.066 169.934C843.035 180.965 825.206 180.891 813.513 170.565C753.308 117.398 679.971 80.9788 600.865 65.2438C512.505 47.6679 420.918 56.6885 337.684 91.1649C254.451 125.641 183.31 184.025 133.258 258.933C83.2064 333.841 56.4913 421.909 56.4913 512C56.4913 602.091 83.2064 690.159 133.258 765.067C183.31 839.975 254.451 898.359 337.684 932.835C420.918 967.312 512.505 976.332 600.865 958.756C679.971 943.021 753.308 906.602 813.513 853.435C825.206 843.109 843.035 843.035 854.066 854.066Z" fill="#CD8C52"/>
<path d="M486.3 484.7C506.833 497.767 522.467 515.033 533.2 536.5C543.933 557.967 549.3 582.233 549.3 609.3C549.3 632.167 544.867 652.7 536 670.9C527.6 689.1 516.633 704.733 503.1 717.8C490.033 730.4 475.333 740.2 459 747.2C442.667 753.733 426.8 757 411.4 757H260.2C252.267 757 245.5 754.2 239.9 748.6C234.3 743 231.5 736.467 231.5 729V295C231.5 287.533 234.3 281 239.9 275.4C245.5 269.8 252.267 267 260.2 267H379.9C381.767 267 388.767 267.933 400.9 269.8C413.033 271.2 426.333 275.633 440.8 283.1C461.8 293.833 477.667 308.533 488.4 327.2C499.6 345.867 505.2 367.8 505.2 393C505.2 421.933 497.733 447.133 482.8 468.6L486.3 484.7ZM288.9 462.3H368C371.733 462.3 377.8 461.833 386.2 460.9C395.067 459.967 403.933 457.4 412.8 453.2C422.133 448.533 430.3 441.533 437.3 432.2C444.3 422.867 447.8 409.8 447.8 393C447.8 377.6 445.233 365.467 440.1 356.6C435.433 347.267 429.833 340.267 423.3 335.6C416.767 330.933 410 327.9 403 326.5C396 325.1 390.167 324.4 385.5 324.4H288.9V462.3ZM452 687.7C460.867 682.567 467.867 676.733 473 670.2C478.6 663.667 482.567 656.9 484.9 649.9C487.7 642.9 489.333 635.9 489.8 628.9C490.733 621.9 491.2 615.367 491.2 609.3C491.2 600.9 489.8 591.567 487 581.3C484.2 571.033 479.533 561.233 473 551.9C466.467 542.567 457.6 534.867 446.4 528.8C435.667 522.267 422.367 519 406.5 519H288.9V699.6H406.5C406.967 699.6 412.1 699.133 421.9 698.2C431.7 696.8 441.733 693.3 452 687.7ZM1052.42 717.8C1053.35 721.533 1053.82 725.267 1053.82 729C1053.82 736 1051.25 742.533 1046.12 748.6C1041.45 754.2 1034.69 757 1025.82 757C1020.69 757 1015.32 755.133 1009.72 751.4C1004.59 747.2 1000.85 742.533 998.52 737.4V738.1L962.82 649.2H741.62C736.486 662.733 730.653 677.667 724.12 694C717.586 709.867 711.52 724.567 705.92 738.1C703.586 742.767 699.62 747.2 694.02 751.4C688.886 755.133 683.986 757 679.32 757C670.92 757 664.153 753.967 659.02 747.9C653.886 741.833 651.32 735.533 651.32 729C651.32 725.267 651.786 721.533 652.72 717.8L789.22 374.8L825.62 285.9V286.6C827.953 281.467 831.453 277.033 836.12 273.3C841.253 269.1 846.853 267 852.92 267C858.053 267 863.186 269.1 868.32 273.3C873.453 277.033 877.186 281.467 879.52 286.6V285.9L1052.42 717.8ZM939.02 591.8L852.92 372L765.42 591.8H939.02Z" fill="#CD8C52"/>
</svg>
