<svg width="1440" height="465" viewBox="0 0 1440 465" fill="none" xmlns="http://www.w3.org/2000/svg">
<rect width="1440" height="465" fill="#CD8C52"/>
<path d="M342.33 229.557C344.383 230.864 345.947 232.591 347.02 234.737C348.093 236.884 348.63 239.311 348.63 242.017C348.63 244.304 348.187 246.357 347.3 248.177C346.46 249.997 345.363 251.561 344.01 252.867C342.703 254.127 341.233 255.107 339.6 255.807C337.967 256.461 336.38 256.787 334.84 256.787H319.72C318.927 256.787 318.25 256.507 317.69 255.947C317.13 255.387 316.85 254.734 316.85 253.987V210.587C316.85 209.841 317.13 209.187 317.69 208.627C318.25 208.067 318.927 207.787 319.72 207.787H331.69C331.877 207.787 332.577 207.881 333.79 208.067C335.003 208.207 336.333 208.651 337.78 209.397C339.88 210.471 341.467 211.941 342.54 213.807C343.66 215.674 344.22 217.867 344.22 220.387C344.22 223.281 343.473 225.801 341.98 227.947L342.33 229.557ZM322.59 227.317H330.5C330.873 227.317 331.48 227.271 332.32 227.177C333.207 227.084 334.093 226.827 334.98 226.407C335.913 225.941 336.73 225.241 337.43 224.307C338.13 223.374 338.48 222.067 338.48 220.387C338.48 218.847 338.223 217.634 337.71 216.747C337.243 215.814 336.683 215.114 336.03 214.647C335.377 214.181 334.7 213.877 334 213.737C333.3 213.597 332.717 213.527 332.25 213.527H322.59V227.317ZM338.9 249.857C339.787 249.344 340.487 248.761 341 248.107C341.56 247.454 341.957 246.777 342.19 246.077C342.47 245.377 342.633 244.677 342.68 243.977C342.773 243.277 342.82 242.624 342.82 242.017C342.82 241.177 342.68 240.244 342.4 239.217C342.12 238.191 341.653 237.211 341 236.277C340.347 235.344 339.46 234.574 338.34 233.967C337.267 233.314 335.937 232.987 334.35 232.987H322.59V251.047H334.35C334.397 251.047 334.91 251.001 335.89 250.907C336.87 250.767 337.873 250.417 338.9 249.857ZM388.871 251.047C389.665 251.047 390.341 251.327 390.901 251.887C391.461 252.447 391.741 253.147 391.741 253.987C391.741 254.734 391.461 255.387 390.901 255.947C390.341 256.507 389.665 256.787 388.871 256.787H365.071C364.278 256.787 363.601 256.507 363.041 255.947C362.481 255.387 362.201 254.734 362.201 253.987V210.587C362.201 209.841 362.481 209.187 363.041 208.627C363.601 208.067 364.278 207.787 365.071 207.787H388.871C389.665 207.787 390.341 208.067 390.901 208.627C391.461 209.187 391.741 209.841 391.741 210.587C391.741 211.427 391.461 212.127 390.901 212.687C390.341 213.247 389.665 213.527 388.871 213.527H367.941V229.487H384.531C385.325 229.487 385.978 229.767 386.491 230.327C387.051 230.841 387.331 231.494 387.331 232.287C387.331 233.081 387.051 233.757 386.491 234.317C385.978 234.831 385.325 235.087 384.531 235.087H367.941V251.047H388.871ZM408.092 256.787C407.345 256.787 406.692 256.507 406.132 255.947C405.572 255.387 405.292 254.734 405.292 253.987V210.587C405.292 209.841 405.572 209.187 406.132 208.627C406.692 208.067 407.345 207.787 408.092 207.787H420.692C420.738 207.787 421.275 207.834 422.302 207.927C423.375 207.974 424.682 208.231 426.222 208.697C427.762 209.117 429.418 209.817 431.192 210.797C432.965 211.777 434.598 213.177 436.092 214.997C437.585 216.817 438.822 219.127 439.802 221.927C440.828 224.727 441.342 228.181 441.342 232.287C441.342 236.394 440.828 239.847 439.802 242.647C438.822 245.447 437.585 247.757 436.092 249.577C434.598 251.397 432.965 252.797 431.192 253.777C429.418 254.757 427.762 255.481 426.222 255.947C424.682 256.367 423.375 256.624 422.302 256.717C421.275 256.764 420.738 256.787 420.692 256.787H408.092ZM411.102 251.047H420.692C420.785 251.047 421.065 251.024 421.532 250.977C421.998 250.931 422.582 250.837 423.282 250.697C423.982 250.511 424.775 250.254 425.662 249.927C426.548 249.554 427.458 249.087 428.392 248.527C430.678 246.987 432.452 244.841 433.712 242.087C434.972 239.334 435.602 236.067 435.602 232.287C435.602 228.367 434.948 225.031 433.642 222.277C432.335 219.524 430.468 217.377 428.042 215.837C427.202 215.277 426.338 214.857 425.452 214.577C424.565 214.251 423.772 214.017 423.072 213.877C422.372 213.737 421.788 213.644 421.322 213.597C420.902 213.551 420.692 213.527 420.692 213.527H411.102V251.047ZM471.615 256.787C468.208 256.787 465.221 256.017 462.655 254.477C460.088 252.891 458.105 250.581 456.705 247.547C456.191 246.521 455.795 245.517 455.515 244.537C455.281 243.511 455.095 242.601 454.955 241.807C454.815 240.967 454.721 240.291 454.675 239.777C454.675 239.264 454.675 238.937 454.675 238.797V210.587C454.675 209.841 454.955 209.187 455.515 208.627C456.121 208.067 456.821 207.787 457.615 207.787C458.361 207.787 459.015 208.067 459.575 208.627C460.135 209.187 460.415 209.841 460.415 210.587V238.797C460.415 238.984 460.438 239.427 460.485 240.127C460.578 240.781 460.765 241.574 461.045 242.507C461.325 243.394 461.698 244.351 462.165 245.377C462.678 246.357 463.331 247.267 464.125 248.107C464.965 248.947 465.991 249.647 467.205 250.207C468.465 250.767 469.935 251.047 471.615 251.047C474.041 251.047 476.001 250.511 477.495 249.437C478.988 248.317 480.108 247.057 480.855 245.657C481.648 244.211 482.161 242.834 482.395 241.527C482.675 240.174 482.815 239.264 482.815 238.797V210.587C482.815 209.841 483.095 209.187 483.655 208.627C484.215 208.067 484.891 207.787 485.685 207.787C486.478 207.787 487.131 208.067 487.645 208.627C488.205 209.187 488.485 209.841 488.485 210.587V238.797C488.485 238.937 488.461 239.264 488.415 239.777C488.415 240.291 488.345 240.967 488.205 241.807C488.111 242.601 487.925 243.511 487.645 244.537C487.365 245.517 486.991 246.521 486.525 247.547C485.125 250.581 483.141 252.891 480.575 254.477C478.055 256.017 475.068 256.787 471.615 256.787ZM530.778 207.787C531.618 207.787 532.318 208.067 532.878 208.627C533.485 209.187 533.788 209.841 533.788 210.587C533.788 211.427 533.485 212.127 532.878 212.687C532.318 213.247 531.618 213.527 530.778 213.527H520.698V253.987C520.698 254.734 520.418 255.387 519.858 255.947C519.298 256.507 518.622 256.787 517.828 256.787C517.035 256.787 516.358 256.507 515.798 255.947C515.285 255.387 515.028 254.734 515.028 253.987V213.527H504.878C504.085 213.527 503.408 213.247 502.848 212.687C502.288 212.127 502.008 211.427 502.008 210.587C502.008 209.841 502.288 209.187 502.848 208.627C503.408 208.067 504.085 207.787 504.878 207.787H530.778ZM576.059 207.787C576.899 207.787 577.599 208.067 578.159 208.627C578.766 209.187 579.069 209.841 579.069 210.587C579.069 211.427 578.766 212.127 578.159 212.687C577.599 213.247 576.899 213.527 576.059 213.527H565.979V253.987C565.979 254.734 565.699 255.387 565.139 255.947C564.579 256.507 563.903 256.787 563.109 256.787C562.316 256.787 561.639 256.507 561.079 255.947C560.566 255.387 560.309 254.734 560.309 253.987V213.527H550.159C549.366 213.527 548.689 213.247 548.129 212.687C547.569 212.127 547.289 211.427 547.289 210.587C547.289 209.841 547.569 209.187 548.129 208.627C548.689 208.067 549.366 207.787 550.159 207.787H576.059ZM595.721 256.787C594.974 256.787 594.321 256.507 593.761 255.947C593.201 255.387 592.921 254.734 592.921 253.987V210.587C592.921 209.841 593.201 209.187 593.761 208.627C594.321 208.067 594.974 207.787 595.721 207.787C596.514 207.787 597.191 208.067 597.751 208.627C598.357 209.187 598.661 209.841 598.661 210.587V253.987C598.661 254.734 598.357 255.387 597.751 255.947C597.191 256.507 596.514 256.787 595.721 256.787ZM704.812 252.867C704.905 253.241 704.952 253.614 704.952 253.987C704.952 254.687 704.695 255.341 704.182 255.947C703.715 256.507 703.039 256.787 702.152 256.787C701.639 256.787 701.102 256.601 700.542 256.227C700.029 255.807 699.655 255.341 699.422 254.827V254.897L695.852 246.007H673.732C673.219 247.361 672.635 248.854 671.982 250.487C671.329 252.074 670.722 253.544 670.162 254.897C669.929 255.364 669.532 255.807 668.972 256.227C668.459 256.601 667.969 256.787 667.502 256.787C666.662 256.787 665.985 256.484 665.472 255.877C664.959 255.271 664.702 254.641 664.702 253.987C664.702 253.614 664.749 253.241 664.842 252.867L678.492 218.567L682.132 209.677V209.747C682.365 209.234 682.715 208.791 683.182 208.417C683.695 207.997 684.255 207.787 684.862 207.787C685.375 207.787 685.889 207.997 686.402 208.417C686.915 208.791 687.289 209.234 687.522 209.747V209.677L704.812 252.867ZM693.472 240.267L684.862 218.287L676.112 240.267H693.472ZM731.845 256.787C728.438 256.787 725.452 256.017 722.885 254.477C720.318 252.891 718.335 250.581 716.935 247.547C716.422 246.521 716.025 245.517 715.745 244.537C715.512 243.511 715.325 242.601 715.185 241.807C715.045 240.967 714.952 240.291 714.905 239.777C714.905 239.264 714.905 238.937 714.905 238.797V210.587C714.905 209.841 715.185 209.187 715.745 208.627C716.352 208.067 717.052 207.787 717.845 207.787C718.592 207.787 719.245 208.067 719.805 208.627C720.365 209.187 720.645 209.841 720.645 210.587V238.797C720.645 238.984 720.668 239.427 720.715 240.127C720.808 240.781 720.995 241.574 721.275 242.507C721.555 243.394 721.928 244.351 722.395 245.377C722.908 246.357 723.562 247.267 724.355 248.107C725.195 248.947 726.222 249.647 727.435 250.207C728.695 250.767 730.165 251.047 731.845 251.047C734.272 251.047 736.232 250.511 737.725 249.437C739.218 248.317 740.338 247.057 741.085 245.657C741.878 244.211 742.392 242.834 742.625 241.527C742.905 240.174 743.045 239.264 743.045 238.797V210.587C743.045 209.841 743.325 209.187 743.885 208.627C744.445 208.067 745.122 207.787 745.915 207.787C746.708 207.787 747.362 208.067 747.875 208.627C748.435 209.187 748.715 209.841 748.715 210.587V238.797C748.715 238.937 748.692 239.264 748.645 239.777C748.645 240.291 748.575 240.967 748.435 241.807C748.342 242.601 748.155 243.511 747.875 244.537C747.595 245.517 747.222 246.521 746.755 247.547C745.355 250.581 743.372 252.891 740.805 254.477C738.285 256.017 735.298 256.787 731.845 256.787ZM791.009 207.787C791.849 207.787 792.549 208.067 793.109 208.627C793.715 209.187 794.019 209.841 794.019 210.587C794.019 211.427 793.715 212.127 793.109 212.687C792.549 213.247 791.849 213.527 791.009 213.527H780.929V253.987C780.929 254.734 780.649 255.387 780.089 255.947C779.529 256.507 778.852 256.787 778.059 256.787C777.265 256.787 776.589 256.507 776.029 255.947C775.515 255.387 775.259 254.734 775.259 253.987V213.527H765.109C764.315 213.527 763.639 213.247 763.079 212.687C762.519 212.127 762.239 211.427 762.239 210.587C762.239 209.841 762.519 209.187 763.079 208.627C763.639 208.067 764.315 207.787 765.109 207.787H791.009ZM825.701 256.787C822.481 256.787 819.448 256.157 816.601 254.897C813.755 253.591 811.258 251.841 809.111 249.647C807.011 247.407 805.331 244.794 804.071 241.807C802.858 238.821 802.251 235.647 802.251 232.287C802.251 228.927 802.858 225.777 804.071 222.837C805.331 219.851 807.011 217.237 809.111 214.997C811.258 212.757 813.755 211.007 816.601 209.747C819.448 208.441 822.481 207.787 825.701 207.787C828.921 207.787 831.955 208.441 834.801 209.747C837.648 211.007 840.121 212.757 842.221 214.997C844.321 217.237 845.978 219.851 847.191 222.837C848.451 225.777 849.081 228.927 849.081 232.287C849.081 235.647 848.451 238.821 847.191 241.807C845.978 244.794 844.321 247.407 842.221 249.647C840.121 251.841 837.648 253.591 834.801 254.897C831.955 256.157 828.921 256.787 825.701 256.787ZM825.701 213.527C823.228 213.527 820.918 214.017 818.771 214.997C816.625 215.977 814.758 217.307 813.171 218.987C811.585 220.667 810.325 222.651 809.391 224.937C808.458 227.224 807.991 229.674 807.991 232.287C807.991 234.901 808.458 237.351 809.391 239.637C810.325 241.924 811.585 243.907 813.171 245.587C814.758 247.267 816.625 248.597 818.771 249.577C820.918 250.557 823.228 251.047 825.701 251.047C828.128 251.047 830.415 250.557 832.561 249.577C834.708 248.597 836.575 247.267 838.161 245.587C839.795 243.907 841.055 241.924 841.941 239.637C842.875 237.351 843.341 234.901 843.341 232.287C843.341 229.674 842.875 227.224 841.941 224.937C841.055 222.651 839.795 220.667 838.161 218.987C836.575 217.307 834.708 215.977 832.561 214.997C830.415 214.017 828.128 213.527 825.701 213.527ZM903.61 256.787C902.863 256.787 902.21 256.507 901.65 255.947C901.09 255.387 900.81 254.734 900.81 253.987V219.267L886.46 238.307C885.946 239.101 885.176 239.497 884.15 239.497C883.73 239.497 883.31 239.404 882.89 239.217C882.47 238.984 882.12 238.681 881.84 238.307L867.63 219.267V253.987C867.63 254.734 867.326 255.387 866.72 255.947C866.16 256.507 865.483 256.787 864.69 256.787C863.896 256.787 863.22 256.507 862.66 255.947C862.1 255.387 861.82 254.734 861.82 253.987V210.587C861.82 209.841 862.1 209.187 862.66 208.627C863.266 208.067 863.966 207.787 864.76 207.787C865.18 207.787 865.576 207.904 865.95 208.137C866.37 208.324 866.72 208.581 867 208.907L884.15 231.867L901.37 208.907C901.976 208.161 902.723 207.787 903.61 207.787C904.45 207.787 905.126 208.067 905.64 208.627C906.2 209.187 906.48 209.841 906.48 210.587V253.987C906.48 254.734 906.2 255.387 905.64 255.947C905.08 256.507 904.403 256.787 903.61 256.787ZM959.587 252.867C959.681 253.241 959.727 253.614 959.727 253.987C959.727 254.687 959.471 255.341 958.957 255.947C958.491 256.507 957.814 256.787 956.927 256.787C956.414 256.787 955.877 256.601 955.317 256.227C954.804 255.807 954.431 255.341 954.197 254.827V254.897L950.627 246.007H928.507C927.994 247.361 927.411 248.854 926.757 250.487C926.104 252.074 925.497 253.544 924.937 254.897C924.704 255.364 924.307 255.807 923.747 256.227C923.234 256.601 922.744 256.787 922.277 256.787C921.437 256.787 920.761 256.484 920.247 255.877C919.734 255.271 919.477 254.641 919.477 253.987C919.477 253.614 919.524 253.241 919.617 252.867L933.267 218.567L936.907 209.677V209.747C937.141 209.234 937.491 208.791 937.957 208.417C938.471 207.997 939.031 207.787 939.637 207.787C940.151 207.787 940.664 207.997 941.177 208.417C941.691 208.791 942.064 209.234 942.297 209.747V209.677L959.587 252.867ZM948.247 240.267L939.637 218.287L930.887 240.267H948.247ZM997.323 211.637C994.663 211.637 992.26 212.104 990.113 213.037C987.967 213.924 986.147 215.254 984.653 217.027C983.16 218.754 982.017 220.877 981.223 223.397C980.43 225.871 980.033 228.671 980.033 231.797C980.033 235.904 980.663 239.474 981.923 242.507C983.23 245.541 985.143 247.874 987.663 249.507C990.23 251.141 993.427 251.957 997.253 251.957C999.447 251.957 1001.52 251.771 1003.48 251.397C1005.44 251.024 1007.36 250.557 1009.22 249.997V255.457C1007.36 256.157 1005.42 256.671 1003.41 256.997C1001.45 257.324 999.097 257.487 996.343 257.487C991.257 257.487 987.01 256.437 983.603 254.337C980.197 252.237 977.63 249.251 975.903 245.377C974.223 241.504 973.383 236.954 973.383 231.727C973.383 227.947 973.897 224.494 974.923 221.367C975.997 218.241 977.537 215.534 979.543 213.247C981.597 210.961 984.117 209.211 987.103 207.997C990.09 206.737 993.52 206.107 997.393 206.107C999.96 206.107 1002.43 206.364 1004.81 206.877C1007.19 207.391 1009.32 208.114 1011.18 209.047L1008.66 214.367C1007.12 213.667 1005.4 213.037 1003.48 212.477C1001.62 211.917 999.563 211.637 997.323 211.637ZM1002.22 266.517C1002.22 268.011 1001.83 269.271 1001.03 270.297C1000.29 271.371 999.143 272.187 997.603 272.747C996.063 273.307 994.15 273.587 991.863 273.587C991.163 273.587 990.487 273.541 989.833 273.447C989.227 273.401 988.737 273.331 988.363 273.237V269.387C988.783 269.481 989.343 269.551 990.043 269.597C990.743 269.691 991.42 269.737 992.073 269.737C993.753 269.737 995.037 269.504 995.923 269.037C996.81 268.617 997.253 267.824 997.253 266.657C997.253 265.444 996.623 264.557 995.363 263.997C994.15 263.437 992.657 263.041 990.883 262.807L993.893 256.787H997.953L996.133 260.497C997.253 260.731 998.28 261.081 999.213 261.547C1000.15 262.061 1000.87 262.714 1001.38 263.507C1001.94 264.301 1002.22 265.304 1002.22 266.517ZM1047.43 200.857C1046.73 200.857 1046.03 200.741 1045.33 200.507C1044.63 200.274 1044 199.994 1043.44 199.667C1042.88 199.341 1042.32 199.107 1041.76 198.967C1041.2 198.781 1040.46 198.687 1039.52 198.687C1039.15 199.341 1038.71 199.877 1038.19 200.297C1037.68 200.671 1037.17 200.857 1036.65 200.857C1035.86 200.857 1035.18 200.577 1034.62 200.017C1034.06 199.457 1033.78 198.781 1033.78 197.987C1033.78 197.567 1033.88 197.077 1034.06 196.517C1034.3 195.911 1034.69 195.351 1035.25 194.837C1035.81 194.277 1036.56 193.834 1037.49 193.507C1038.43 193.134 1039.62 192.947 1041.06 192.947C1041.76 192.947 1042.42 193.064 1043.02 193.297C1043.68 193.484 1044.26 193.741 1044.77 194.067C1044.87 194.114 1044.96 194.161 1045.05 194.207C1045.15 194.254 1045.15 194.231 1045.05 194.137C1045.61 194.417 1046.13 194.651 1046.59 194.837C1047.11 195.024 1047.9 195.117 1048.97 195.117C1049.72 193.671 1050.68 192.947 1051.84 192.947C1052.64 192.947 1053.29 193.227 1053.8 193.787C1054.36 194.347 1054.64 195.024 1054.64 195.817C1054.64 197.637 1053.94 198.944 1052.54 199.737C1051.19 200.484 1049.49 200.857 1047.43 200.857ZM1064.23 252.867C1064.33 253.241 1064.37 253.614 1064.37 253.987C1064.37 254.687 1064.12 255.341 1063.6 255.947C1063.14 256.507 1062.46 256.787 1061.57 256.787C1061.06 256.787 1060.52 256.601 1059.96 256.227C1059.45 255.807 1059.08 255.341 1058.84 254.827V254.897L1055.27 246.007H1033.15C1032.64 247.361 1032.06 248.854 1031.4 250.487C1030.75 252.074 1030.14 253.544 1029.58 254.897C1029.35 255.364 1028.95 255.807 1028.39 256.227C1027.88 256.601 1027.39 256.787 1026.92 256.787C1026.08 256.787 1025.41 256.484 1024.89 255.877C1024.38 255.271 1024.12 254.641 1024.12 253.987C1024.12 253.614 1024.17 253.241 1024.26 252.867L1037.91 218.567L1041.55 209.677V209.747C1041.79 209.234 1042.14 208.791 1042.6 208.417C1043.12 207.997 1043.68 207.787 1044.28 207.787C1044.8 207.787 1045.31 207.997 1045.82 208.417C1046.34 208.791 1046.71 209.234 1046.94 209.747V209.677L1064.23 252.867ZM1052.89 240.267L1044.28 218.287L1035.53 240.267H1052.89ZM1095.79 256.787C1092.57 256.787 1089.54 256.157 1086.69 254.897C1083.84 253.591 1081.35 251.841 1079.2 249.647C1077.1 247.407 1075.42 244.794 1074.16 241.807C1072.95 238.821 1072.34 235.647 1072.34 232.287C1072.34 228.927 1072.95 225.777 1074.16 222.837C1075.42 219.851 1077.1 217.237 1079.2 214.997C1081.35 212.757 1083.84 211.007 1086.69 209.747C1089.54 208.441 1092.57 207.787 1095.79 207.787C1099.01 207.787 1102.04 208.441 1104.89 209.747C1107.74 211.007 1110.21 212.757 1112.31 214.997C1114.41 217.237 1116.07 219.851 1117.28 222.837C1118.54 225.777 1119.17 228.927 1119.17 232.287C1119.17 235.647 1118.54 238.821 1117.28 241.807C1116.07 244.794 1114.41 247.407 1112.31 249.647C1110.21 251.841 1107.74 253.591 1104.89 254.897C1102.04 256.157 1099.01 256.787 1095.79 256.787ZM1095.79 213.527C1093.32 213.527 1091.01 214.017 1088.86 214.997C1086.71 215.977 1084.85 217.307 1083.26 218.987C1081.67 220.667 1080.41 222.651 1079.48 224.937C1078.55 227.224 1078.08 229.674 1078.08 232.287C1078.08 234.901 1078.55 237.351 1079.48 239.637C1080.41 241.924 1081.67 243.907 1083.26 245.587C1084.85 247.267 1086.71 248.597 1088.86 249.577C1091.01 250.557 1093.32 251.047 1095.79 251.047C1098.22 251.047 1100.5 250.557 1102.65 249.577C1104.8 248.597 1106.66 247.267 1108.25 245.587C1109.88 243.907 1111.14 241.924 1112.03 239.637C1112.96 237.351 1113.43 234.901 1113.43 232.287C1113.43 229.674 1112.96 227.224 1112.03 224.937C1111.14 222.651 1109.88 220.667 1108.25 218.987C1106.66 217.307 1104.8 215.977 1102.65 214.997C1100.5 214.017 1098.22 213.527 1095.79 213.527Z" fill="white"/>
<path d="M408.294 274.392C409.496 275.326 409.725 277.058 408.755 278.231C399.992 288.828 388.326 296.62 375.188 300.612C361.175 304.869 346.192 304.589 332.346 299.812C318.499 295.035 306.485 286 297.992 273.979C289.5 261.957 284.956 247.553 285 232.792C285.044 218.031 289.674 203.654 298.238 191.685C306.802 179.715 318.87 170.754 332.745 166.061C346.62 161.367 361.604 161.179 375.591 165.521C388.705 169.592 400.324 177.455 409.024 188.105C409.987 189.284 409.748 191.015 408.54 191.941C407.318 192.878 405.571 192.635 404.592 191.447C396.597 181.74 385.96 174.573 373.965 170.849C361.083 166.85 347.281 167.024 334.502 171.346C321.722 175.669 310.607 183.922 302.72 194.947C294.832 205.972 290.568 219.213 290.527 232.809C290.487 246.404 294.671 259.671 302.493 270.743C310.315 281.816 321.381 290.137 334.134 294.537C346.888 298.937 360.688 299.195 373.594 295.274C385.611 291.623 396.29 284.52 404.343 274.863C405.329 273.68 407.078 273.447 408.294 274.392Z" fill="white"/>
<path d="M575.85 315.508H568.41V291.208H575.85C581.7 291.208 585.78 297.148 585.78 303.328C585.78 308.278 582.63 315.508 575.85 315.508ZM571.32 312.598H575.82C579.57 312.598 582.84 308.338 582.84 303.328C582.84 298.108 579.54 294.148 575.85 294.148H571.32V312.598ZM608.296 315.508H593.236V291.208H608.266V294.118H596.146V301.558C596.146 301.558 596.476 301.318 597.556 301.318H608.266V304.228H597.346C596.506 304.228 596.176 304.678 596.176 304.918V312.598H608.296V315.508ZM623.761 315.508C620.491 315.508 617.521 314.878 614.491 311.068L616.801 309.328C618.061 310.978 619.561 312.628 623.731 312.628C627.511 312.628 629.491 310.918 629.491 308.338C629.491 306.178 627.721 305.428 623.521 304.408C620.011 303.568 615.271 302.338 615.271 297.688C615.271 293.788 618.181 291.208 622.951 291.208C626.041 291.208 628.561 291.928 631.321 295.108L629.011 296.848C626.701 294.568 625.081 294.028 622.921 294.028C619.741 294.028 618.181 295.528 618.181 297.598C618.181 299.848 619.981 300.538 624.241 301.588C627.631 302.428 632.401 303.658 632.401 308.338C632.401 313.078 628.471 315.508 623.761 315.508ZM649.442 315.508C643.322 315.508 639.422 309.418 639.422 303.388C639.422 296.998 643.652 291.208 649.442 291.208C652.622 291.208 655.562 293.068 657.422 296.068L658.202 297.328L655.682 298.858L654.932 297.598C653.582 295.318 651.452 294.118 649.412 294.118C645.662 294.118 642.332 298.108 642.332 303.358C642.332 308.578 645.662 312.568 649.412 312.568C651.452 312.568 653.582 311.368 654.932 309.088L655.682 307.828L658.202 309.358L657.422 310.618C655.562 313.648 652.562 315.508 649.442 315.508ZM674.18 315.538C667.91 315.538 664.19 309.118 664.19 303.388C664.19 297.328 668.12 291.208 674.18 291.208C679.97 291.208 684.14 297.118 684.14 303.388C684.14 308.758 680.69 315.538 674.18 315.538ZM674.18 294.178C670.43 294.178 667.1 298.168 667.1 303.388C667.1 308.638 670.43 312.628 674.18 312.628C677.93 312.628 681.23 308.638 681.23 303.388C681.23 298.168 677.93 294.178 674.18 294.178ZM708.668 291.208H711.398V315.508H708.488V300.208L702.908 315.508H700.358L694.778 300.208V315.508H691.868V291.208H694.598L701.618 310.528L708.668 291.208ZM719.594 291.208H729.764C733.334 291.208 736.214 294.148 736.214 297.688C736.214 301.288 733.304 304.228 729.734 304.228H723.614C722.624 304.228 722.504 304.768 722.504 304.888V315.508H719.594V291.208ZM729.734 301.318C731.684 301.288 733.274 299.638 733.274 297.688C733.274 295.708 731.684 294.088 729.734 294.088H722.504V301.498C722.504 301.498 722.714 301.318 723.674 301.318H729.734ZM746.217 312.598H759.057V315.508H743.307V291.208H746.217V312.598ZM767.225 315.508V291.208H770.135V315.508H767.225ZM787.267 315.508C781.147 315.508 777.247 309.418 777.247 303.388C777.247 296.998 781.477 291.208 787.267 291.208C790.447 291.208 793.387 293.068 795.247 296.068L796.027 297.328L793.507 298.858L792.757 297.598C791.407 295.318 789.277 294.118 787.237 294.118C783.487 294.118 780.157 298.108 780.157 303.358C780.157 308.578 783.487 312.568 787.237 312.568C789.277 312.568 791.407 311.368 792.757 309.088L793.507 307.828L796.027 309.358L795.247 310.618C793.387 313.648 790.387 315.508 787.267 315.508ZM804.851 315.508H801.851L810.311 291.208H812.711L821.171 315.478H818.111L815.381 307.738C815.381 307.738 814.841 308.008 813.761 308.008L808.811 307.978C807.581 307.978 807.221 308.638 807.191 308.758L804.851 315.508ZM811.511 296.548L808.361 305.428C808.361 305.428 808.631 305.248 809.231 305.248H813.191C814.151 305.248 814.391 304.918 814.391 304.918L811.511 296.548ZM843.867 315.508H840.447L830.727 297.658V315.508H827.817V291.208H830.517L840.957 310.408V291.208H843.867V315.508ZM859.086 315.508H851.646V291.208H859.086C864.936 291.208 869.016 297.148 869.016 303.328C869.016 308.278 865.866 315.508 859.086 315.508ZM854.556 312.598H859.056C862.806 312.598 866.076 308.338 866.076 303.328C866.076 298.108 862.776 294.148 859.086 294.148H854.556V312.598ZM885.194 315.538C878.924 315.538 875.204 309.118 875.204 303.388C875.204 297.328 879.134 291.208 885.194 291.208C890.984 291.208 895.154 297.118 895.154 303.388C895.154 308.758 891.704 315.538 885.194 315.538ZM885.194 294.178C881.444 294.178 878.114 298.168 878.114 303.388C878.114 308.638 881.444 312.628 885.194 312.628C888.944 312.628 892.244 308.638 892.244 303.388C892.244 298.168 888.944 294.178 885.194 294.178ZM922.888 315.508C919.618 315.508 916.648 314.878 913.618 311.068L915.928 309.328C917.188 310.978 918.688 312.628 922.858 312.628C926.638 312.628 928.618 310.918 928.618 308.338C928.618 306.178 926.848 305.428 922.648 304.408C919.138 303.568 914.398 302.338 914.398 297.688C914.398 293.788 917.308 291.208 922.078 291.208C925.168 291.208 927.688 291.928 930.448 295.108L928.138 296.848C925.828 294.568 924.208 294.028 922.048 294.028C918.868 294.028 917.308 295.528 917.308 297.598C917.308 299.848 919.108 300.538 923.368 301.588C926.758 302.428 931.528 303.658 931.528 308.338C931.528 313.078 927.598 315.508 922.888 315.508ZM946.739 315.508C942.449 315.508 938.849 312.028 938.849 307.588V291.208H941.759V307.588C941.759 310.348 943.979 312.598 946.739 312.598C949.529 312.598 951.749 310.348 951.749 307.588V291.208H954.659V307.588C954.659 312.028 951.059 315.508 946.739 315.508ZM963.605 315.508H960.605L969.065 291.208H971.465L979.925 315.478H976.865L974.135 307.738C974.135 307.738 973.595 308.008 972.515 308.008L967.565 307.978C966.335 307.978 965.975 308.638 965.945 308.758L963.605 315.508ZM970.265 296.548L967.115 305.428C967.115 305.428 967.385 305.248 967.985 305.248H971.945C972.905 305.248 973.145 304.918 973.145 304.918L970.265 296.548ZM1013.51 315.508H998.447V291.208H1013.48V294.118H1001.36V301.558C1001.36 301.558 1001.69 301.318 1002.77 301.318H1013.48V304.228H1002.56C1001.72 304.228 1001.39 304.678 1001.39 304.918V312.598H1013.51V315.508ZM1037.67 291.208H1040.4V315.508H1037.49V300.208L1031.91 315.508H1029.36L1023.78 300.208V315.508H1020.87V291.208H1023.6L1030.62 310.528L1037.67 291.208ZM1048.6 291.208H1058.77C1062.34 291.208 1065.22 294.148 1065.22 297.688C1065.22 301.288 1062.31 304.228 1058.74 304.228H1052.62C1051.63 304.228 1051.51 304.768 1051.51 304.888V315.508H1048.6V291.208ZM1058.74 301.318C1060.69 301.288 1062.28 299.638 1062.28 297.688C1062.28 295.708 1060.69 294.088 1058.74 294.088H1051.51V301.498C1051.51 301.498 1051.72 301.318 1052.68 301.318H1058.74ZM1071.75 291.208H1081.92C1085.49 291.208 1088.37 294.148 1088.37 297.688C1088.37 300.508 1086.57 302.908 1084.11 303.838L1089.3 315.508H1086.15L1081.47 305.008C1081.11 304.228 1080.6 304.228 1080.54 304.228H1075.77C1074.78 304.228 1074.66 304.768 1074.66 304.888V315.508H1071.75V291.208ZM1081.89 301.318C1083.84 301.288 1085.43 299.638 1085.43 297.688C1085.43 295.708 1083.84 294.088 1081.89 294.088H1074.66V301.498C1074.66 301.498 1074.87 301.318 1075.83 301.318H1081.89ZM1110.94 315.508H1095.88V291.208H1110.91V294.118H1098.79V301.558C1098.79 301.558 1099.12 301.318 1100.2 301.318H1110.91V304.228H1099.99C1099.15 304.228 1098.82 304.678 1098.82 304.918V312.598H1110.94V315.508ZM1126.4 315.508C1123.13 315.508 1120.16 314.878 1117.13 311.068L1119.44 309.328C1120.7 310.978 1122.2 312.628 1126.37 312.628C1130.15 312.628 1132.13 310.918 1132.13 308.338C1132.13 306.178 1130.36 305.428 1126.16 304.408C1122.65 303.568 1117.91 302.338 1117.91 297.688C1117.91 293.788 1120.82 291.208 1125.59 291.208C1128.68 291.208 1131.2 291.928 1133.96 295.108L1131.65 296.848C1129.34 294.568 1127.72 294.028 1125.56 294.028C1122.38 294.028 1120.82 295.528 1120.82 297.598C1120.82 299.848 1122.62 300.538 1126.88 301.588C1130.27 302.428 1135.04 303.658 1135.04 308.338C1135.04 313.078 1131.11 315.508 1126.4 315.508ZM1144.34 315.508H1141.34L1149.8 291.208H1152.2L1160.66 315.478H1157.6L1154.87 307.738C1154.87 307.738 1154.33 308.008 1153.25 308.008L1148.3 307.978C1147.07 307.978 1146.71 308.638 1146.68 308.758L1144.34 315.508ZM1151 296.548L1147.85 305.428C1147.85 305.428 1148.12 305.248 1148.72 305.248H1152.68C1153.64 305.248 1153.88 304.918 1153.88 304.918L1151 296.548Z" fill="white"/>
</svg>
