<svg width="735" height="700" viewBox="0 0 735 700" fill="none" xmlns="http://www.w3.org/2000/svg">
<rect width="735" height="700" fill="#CD8C52"/>
<path d="M125.574 343.931C126.875 344.759 127.865 345.853 128.545 347.213C129.225 348.573 129.565 350.11 129.565 351.825C129.565 353.274 129.285 354.575 128.723 355.728C128.19 356.881 127.496 357.872 126.638 358.7C125.81 359.498 124.879 360.119 123.844 360.563C122.809 360.977 121.804 361.184 120.828 361.184H111.248C110.745 361.184 110.317 361.006 109.962 360.651C109.607 360.297 109.43 359.883 109.43 359.41V331.911C109.43 331.438 109.607 331.024 109.962 330.669C110.317 330.315 110.745 330.137 111.248 330.137H118.832C118.95 330.137 119.394 330.196 120.163 330.315C120.932 330.403 121.774 330.684 122.691 331.157C124.021 331.837 125.027 332.769 125.707 333.951C126.416 335.134 126.771 336.524 126.771 338.121C126.771 339.954 126.298 341.55 125.352 342.911L125.574 343.931ZM113.066 342.511H118.078C118.315 342.511 118.699 342.482 119.231 342.423C119.793 342.364 120.355 342.201 120.917 341.935C121.508 341.639 122.026 341.196 122.469 340.604C122.913 340.013 123.134 339.185 123.134 338.121C123.134 337.145 122.972 336.376 122.646 335.814C122.351 335.223 121.996 334.779 121.582 334.484C121.168 334.188 120.739 333.996 120.296 333.907C119.852 333.818 119.483 333.774 119.187 333.774H113.066V342.511ZM123.4 356.793C123.962 356.467 124.406 356.098 124.731 355.684C125.086 355.27 125.337 354.841 125.485 354.398C125.662 353.954 125.766 353.511 125.795 353.067C125.855 352.624 125.884 352.21 125.884 351.825C125.884 351.293 125.795 350.702 125.618 350.051C125.441 349.401 125.145 348.78 124.731 348.188C124.317 347.597 123.755 347.109 123.046 346.725C122.366 346.311 121.523 346.104 120.518 346.104H113.066V357.547H120.518C120.547 357.547 120.872 357.517 121.493 357.458C122.114 357.369 122.75 357.148 123.4 356.793ZM155.062 357.547C155.565 357.547 155.994 357.724 156.348 358.079C156.703 358.434 156.881 358.877 156.881 359.41C156.881 359.883 156.703 360.297 156.348 360.651C155.994 361.006 155.565 361.184 155.062 361.184H139.983C139.48 361.184 139.051 361.006 138.696 360.651C138.342 360.297 138.164 359.883 138.164 359.41V331.911C138.164 331.438 138.342 331.024 138.696 330.669C139.051 330.315 139.48 330.137 139.983 330.137H155.062C155.565 330.137 155.994 330.315 156.348 330.669C156.703 331.024 156.881 331.438 156.881 331.911C156.881 332.443 156.703 332.887 156.348 333.242C155.994 333.597 155.565 333.774 155.062 333.774H141.801V343.886H152.312C152.815 343.886 153.229 344.064 153.554 344.419C153.909 344.744 154.087 345.158 154.087 345.66C154.087 346.163 153.909 346.592 153.554 346.947C153.229 347.272 152.815 347.434 152.312 347.434H141.801V357.547H155.062ZM167.24 361.184C166.767 361.184 166.353 361.006 165.998 360.651C165.644 360.297 165.466 359.883 165.466 359.41V331.911C165.466 331.438 165.644 331.024 165.998 330.669C166.353 330.315 166.767 330.137 167.24 330.137H175.224C175.253 330.137 175.593 330.167 176.244 330.226C176.924 330.255 177.752 330.418 178.728 330.714C179.703 330.98 180.753 331.423 181.877 332.044C183 332.665 184.035 333.552 184.981 334.705C185.927 335.859 186.711 337.322 187.332 339.096C187.982 340.87 188.308 343.058 188.308 345.66C188.308 348.262 187.982 350.45 187.332 352.224C186.711 353.999 185.927 355.462 184.981 356.615C184.035 357.768 183 358.656 181.877 359.276C180.753 359.897 179.703 360.356 178.728 360.651C177.752 360.917 176.924 361.08 176.244 361.139C175.593 361.169 175.253 361.184 175.224 361.184H167.24ZM169.147 357.547H175.224C175.283 357.547 175.46 357.532 175.756 357.502C176.052 357.473 176.421 357.414 176.865 357.325C177.308 357.207 177.811 357.044 178.373 356.837C178.934 356.601 179.511 356.305 180.102 355.95C181.551 354.974 182.675 353.614 183.473 351.87C184.272 350.125 184.671 348.055 184.671 345.66C184.671 343.177 184.257 341.063 183.429 339.318C182.601 337.574 181.418 336.213 179.881 335.238C179.348 334.883 178.801 334.617 178.24 334.439C177.678 334.232 177.175 334.085 176.732 333.996C176.288 333.907 175.919 333.848 175.623 333.818C175.357 333.789 175.224 333.774 175.224 333.774H169.147V357.547ZM207.488 361.184C205.33 361.184 203.438 360.696 201.811 359.72C200.185 358.715 198.928 357.251 198.041 355.329C197.716 354.679 197.465 354.043 197.287 353.422C197.14 352.771 197.021 352.195 196.933 351.692C196.844 351.16 196.785 350.731 196.755 350.406C196.755 350.081 196.755 349.874 196.755 349.785V331.911C196.755 331.438 196.933 331.024 197.287 330.669C197.672 330.315 198.115 330.137 198.618 330.137C199.091 330.137 199.505 330.315 199.86 330.669C200.215 331.024 200.392 331.438 200.392 331.911V349.785C200.392 349.903 200.407 350.184 200.436 350.628C200.496 351.042 200.614 351.544 200.791 352.136C200.969 352.698 201.205 353.304 201.501 353.954C201.826 354.575 202.24 355.152 202.743 355.684C203.275 356.216 203.925 356.66 204.694 357.015C205.493 357.369 206.424 357.547 207.488 357.547C209.026 357.547 210.268 357.207 211.214 356.527C212.16 355.817 212.87 355.019 213.343 354.132C213.846 353.215 214.171 352.343 214.319 351.515C214.496 350.657 214.585 350.081 214.585 349.785V331.911C214.585 331.438 214.762 331.024 215.117 330.669C215.472 330.315 215.901 330.137 216.403 330.137C216.906 330.137 217.32 330.315 217.645 330.669C218 331.024 218.177 331.438 218.177 331.911V349.785C218.177 349.874 218.162 350.081 218.133 350.406C218.133 350.731 218.089 351.16 218 351.692C217.941 352.195 217.822 352.771 217.645 353.422C217.468 354.043 217.231 354.679 216.935 355.329C216.048 357.251 214.792 358.715 213.165 359.72C211.569 360.696 209.676 361.184 207.488 361.184ZM244.975 330.137C245.507 330.137 245.95 330.315 246.305 330.669C246.689 331.024 246.882 331.438 246.882 331.911C246.882 332.443 246.689 332.887 246.305 333.242C245.95 333.597 245.507 333.774 244.975 333.774H238.588V359.41C238.588 359.883 238.41 360.297 238.056 360.651C237.701 361.006 237.272 361.184 236.769 361.184C236.267 361.184 235.838 361.006 235.483 360.651C235.158 360.297 234.995 359.883 234.995 359.41V333.774H228.564C228.062 333.774 227.633 333.597 227.278 333.242C226.923 332.887 226.746 332.443 226.746 331.911C226.746 331.438 226.923 331.024 227.278 330.669C227.633 330.315 228.062 330.137 228.564 330.137H244.975ZM273.665 330.137C274.197 330.137 274.64 330.315 274.995 330.669C275.38 331.024 275.572 331.438 275.572 331.911C275.572 332.443 275.38 332.887 274.995 333.242C274.64 333.597 274.197 333.774 273.665 333.774H267.278V359.41C267.278 359.883 267.101 360.297 266.746 360.651C266.391 361.006 265.962 361.184 265.46 361.184C264.957 361.184 264.528 361.006 264.173 360.651C263.848 360.297 263.686 359.883 263.686 359.41V333.774H257.254C256.752 333.774 256.323 333.597 255.968 333.242C255.613 332.887 255.436 332.443 255.436 331.911C255.436 331.438 255.613 331.024 255.968 330.669C256.323 330.315 256.752 330.137 257.254 330.137H273.665ZM286.122 361.184C285.649 361.184 285.235 361.006 284.88 360.651C284.525 360.297 284.348 359.883 284.348 359.41V331.911C284.348 331.438 284.525 331.024 284.88 330.669C285.235 330.315 285.649 330.137 286.122 330.137C286.625 330.137 287.053 330.315 287.408 330.669C287.793 331.024 287.985 331.438 287.985 331.911V359.41C287.985 359.883 287.793 360.297 287.408 360.651C287.053 361.006 286.625 361.184 286.122 361.184ZM355.242 358.7C355.301 358.936 355.331 359.173 355.331 359.41C355.331 359.853 355.168 360.267 354.843 360.651C354.547 361.006 354.119 361.184 353.557 361.184C353.232 361.184 352.892 361.065 352.537 360.829C352.212 360.563 351.975 360.267 351.827 359.942V359.986L349.565 354.353H335.55C335.225 355.211 334.855 356.157 334.441 357.192C334.027 358.197 333.643 359.129 333.288 359.986C333.14 360.282 332.889 360.563 332.534 360.829C332.209 361.065 331.898 361.184 331.603 361.184C331.07 361.184 330.642 360.991 330.316 360.607C329.991 360.223 329.829 359.823 329.829 359.41C329.829 359.173 329.858 358.936 329.917 358.7L338.566 336.967L340.872 331.335V331.379C341.02 331.054 341.242 330.773 341.537 330.536C341.863 330.27 342.218 330.137 342.602 330.137C342.927 330.137 343.252 330.27 343.578 330.536C343.903 330.773 344.139 331.054 344.287 331.379V331.335L355.242 358.7ZM348.057 350.717L342.602 336.79L337.058 350.717H348.057ZM372.37 361.184C370.212 361.184 368.32 360.696 366.693 359.72C365.067 358.715 363.811 357.251 362.923 355.329C362.598 354.679 362.347 354.043 362.169 353.422C362.022 352.771 361.903 352.195 361.815 351.692C361.726 351.16 361.667 350.731 361.637 350.406C361.637 350.081 361.637 349.874 361.637 349.785V331.911C361.637 331.438 361.815 331.024 362.169 330.669C362.554 330.315 362.997 330.137 363.5 330.137C363.973 330.137 364.387 330.315 364.742 330.669C365.097 331.024 365.274 331.438 365.274 331.911V349.785C365.274 349.903 365.289 350.184 365.318 350.628C365.378 351.042 365.496 351.544 365.673 352.136C365.851 352.698 366.087 353.304 366.383 353.954C366.708 354.575 367.122 355.152 367.625 355.684C368.157 356.216 368.808 356.66 369.576 357.015C370.375 357.369 371.306 357.547 372.37 357.547C373.908 357.547 375.15 357.207 376.096 356.527C377.042 355.817 377.752 355.019 378.225 354.132C378.728 353.215 379.053 352.343 379.201 351.515C379.378 350.657 379.467 350.081 379.467 349.785V331.911C379.467 331.438 379.644 331.024 379.999 330.669C380.354 330.315 380.783 330.137 381.285 330.137C381.788 330.137 382.202 330.315 382.527 330.669C382.882 331.024 383.059 331.438 383.059 331.911V349.785C383.059 349.874 383.045 350.081 383.015 350.406C383.015 350.731 382.971 351.16 382.882 351.692C382.823 352.195 382.704 352.771 382.527 353.422C382.35 354.043 382.113 354.679 381.817 355.329C380.93 357.251 379.674 358.715 378.048 359.72C376.451 360.696 374.558 361.184 372.37 361.184ZM409.857 330.137C410.389 330.137 410.832 330.315 411.187 330.669C411.572 331.024 411.764 331.438 411.764 331.911C411.764 332.443 411.572 332.887 411.187 333.242C410.832 333.597 410.389 333.774 409.857 333.774H403.47V359.41C403.47 359.883 403.292 360.297 402.938 360.651C402.583 361.006 402.154 361.184 401.651 361.184C401.149 361.184 400.72 361.006 400.365 360.651C400.04 360.297 399.877 359.883 399.877 359.41V333.774H393.446C392.944 333.774 392.515 333.597 392.16 333.242C391.805 332.887 391.628 332.443 391.628 331.911C391.628 331.438 391.805 331.024 392.16 330.669C392.515 330.315 392.944 330.137 393.446 330.137H409.857ZM431.838 361.184C429.798 361.184 427.876 360.784 426.072 359.986C424.268 359.158 422.687 358.049 421.326 356.66C419.996 355.24 418.931 353.585 418.133 351.692C417.364 349.8 416.98 347.789 416.98 345.66C416.98 343.531 417.364 341.536 418.133 339.673C418.931 337.781 419.996 336.125 421.326 334.705C422.687 333.286 424.268 332.177 426.072 331.379C427.876 330.551 429.798 330.137 431.838 330.137C433.878 330.137 435.8 330.551 437.604 331.379C439.407 332.177 440.974 333.286 442.305 334.705C443.635 336.125 444.685 337.781 445.454 339.673C446.252 341.536 446.651 343.531 446.651 345.66C446.651 347.789 446.252 349.8 445.454 351.692C444.685 353.585 443.635 355.24 442.305 356.66C440.974 358.049 439.407 359.158 437.604 359.986C435.8 360.784 433.878 361.184 431.838 361.184ZM431.838 333.774C430.271 333.774 428.807 334.085 427.447 334.705C426.087 335.326 424.904 336.169 423.899 337.234C422.894 338.298 422.095 339.555 421.504 341.003C420.912 342.452 420.617 344.005 420.617 345.66C420.617 347.316 420.912 348.869 421.504 350.317C422.095 351.766 422.894 353.023 423.899 354.087C424.904 355.152 426.087 355.994 427.447 356.615C428.807 357.236 430.271 357.547 431.838 357.547C433.375 357.547 434.824 357.236 436.184 356.615C437.544 355.994 438.727 355.152 439.732 354.087C440.767 353.023 441.566 351.766 442.128 350.317C442.719 348.869 443.015 347.316 443.015 345.66C443.015 344.005 442.719 342.452 442.128 341.003C441.566 339.555 440.767 338.298 439.732 337.234C438.727 336.169 437.544 335.326 436.184 334.705C434.824 334.085 433.375 333.774 431.838 333.774ZM481.201 361.184C480.727 361.184 480.314 361.006 479.959 360.651C479.604 360.297 479.426 359.883 479.426 359.41V337.411L470.334 349.475C470.009 349.977 469.521 350.229 468.871 350.229C468.605 350.229 468.338 350.17 468.072 350.051C467.806 349.903 467.584 349.711 467.407 349.475L458.404 337.411V359.41C458.404 359.883 458.211 360.297 457.827 360.651C457.472 361.006 457.043 361.184 456.541 361.184C456.038 361.184 455.609 361.006 455.255 360.651C454.9 360.297 454.722 359.883 454.722 359.41V331.911C454.722 331.438 454.9 331.024 455.255 330.669C455.639 330.315 456.083 330.137 456.585 330.137C456.851 330.137 457.103 330.211 457.339 330.359C457.605 330.477 457.827 330.64 458.004 330.847L468.871 345.394L479.781 330.847C480.166 330.374 480.639 330.137 481.201 330.137C481.733 330.137 482.162 330.315 482.487 330.669C482.842 331.024 483.019 331.438 483.019 331.911V359.41C483.019 359.883 482.842 360.297 482.487 360.651C482.132 361.006 481.703 361.184 481.201 361.184ZM516.668 358.7C516.727 358.936 516.757 359.173 516.757 359.41C516.757 359.853 516.594 360.267 516.269 360.651C515.973 361.006 515.544 361.184 514.983 361.184C514.657 361.184 514.317 361.065 513.963 360.829C513.637 360.563 513.401 360.267 513.253 359.942V359.986L510.991 354.353H496.976C496.65 355.211 496.281 356.157 495.867 357.192C495.453 358.197 495.069 359.129 494.714 359.986C494.566 360.282 494.315 360.563 493.96 360.829C493.635 361.065 493.324 361.184 493.028 361.184C492.496 361.184 492.067 360.991 491.742 360.607C491.417 360.223 491.254 359.823 491.254 359.41C491.254 359.173 491.284 358.936 491.343 358.7L499.992 336.967L502.298 331.335V331.379C502.446 331.054 502.668 330.773 502.963 330.536C503.288 330.27 503.643 330.137 504.028 330.137C504.353 330.137 504.678 330.27 505.003 330.536C505.329 330.773 505.565 331.054 505.713 331.379V331.335L516.668 358.7ZM509.483 350.717L504.028 336.79L498.484 350.717H509.483ZM540.578 332.577C538.892 332.577 537.369 332.872 536.009 333.464C534.649 334.025 533.496 334.868 532.55 335.992C531.604 337.086 530.879 338.431 530.377 340.028C529.874 341.595 529.623 343.369 529.623 345.35C529.623 347.952 530.022 350.214 530.82 352.136C531.648 354.058 532.86 355.536 534.457 356.571C536.083 357.606 538.109 358.123 540.533 358.123C541.923 358.123 543.239 358.005 544.481 357.768C545.722 357.532 546.935 357.236 548.117 356.881V360.341C546.935 360.784 545.708 361.11 544.436 361.317C543.194 361.524 541.701 361.627 539.957 361.627C536.734 361.627 534.043 360.962 531.885 359.631C529.726 358.301 528.1 356.408 527.006 353.954C525.941 351.5 525.409 348.617 525.409 345.306C525.409 342.911 525.734 340.723 526.385 338.741C527.065 336.76 528.041 335.045 529.312 333.597C530.613 332.148 532.21 331.039 534.102 330.27C535.994 329.472 538.168 329.073 540.622 329.073C542.248 329.073 543.815 329.235 545.323 329.561C546.831 329.886 548.177 330.344 549.359 330.936L547.763 334.306C546.787 333.863 545.693 333.464 544.481 333.109C543.298 332.754 541.997 332.577 540.578 332.577ZM543.682 367.349C543.682 368.295 543.431 369.093 542.928 369.744C542.455 370.424 541.731 370.941 540.755 371.296C539.779 371.651 538.567 371.828 537.118 371.828C536.675 371.828 536.246 371.799 535.832 371.739C535.447 371.71 535.137 371.665 534.9 371.606V369.167C535.167 369.226 535.521 369.27 535.965 369.3C536.408 369.359 536.837 369.389 537.251 369.389C538.316 369.389 539.129 369.241 539.69 368.945C540.252 368.679 540.533 368.176 540.533 367.437C540.533 366.668 540.134 366.107 539.336 365.752C538.567 365.397 537.621 365.146 536.497 364.998L538.404 361.184H540.977L539.824 363.534C540.533 363.682 541.184 363.904 541.775 364.2C542.366 364.525 542.825 364.939 543.15 365.441C543.505 365.944 543.682 366.58 543.682 367.349ZM572.326 325.746C571.883 325.746 571.439 325.672 570.996 325.525C570.552 325.377 570.153 325.199 569.798 324.992C569.443 324.785 569.089 324.638 568.734 324.549C568.379 324.431 567.906 324.371 567.315 324.371C567.078 324.785 566.797 325.125 566.472 325.392C566.147 325.628 565.821 325.746 565.496 325.746C564.993 325.746 564.565 325.569 564.21 325.214C563.855 324.859 563.678 324.431 563.678 323.928C563.678 323.662 563.737 323.351 563.855 322.997C564.003 322.612 564.254 322.257 564.609 321.932C564.964 321.577 565.437 321.296 566.028 321.089C566.62 320.853 567.374 320.735 568.29 320.735C568.734 320.735 569.148 320.808 569.532 320.956C569.946 321.075 570.316 321.237 570.641 321.444C570.7 321.474 570.759 321.503 570.818 321.533C570.877 321.562 570.877 321.548 570.818 321.489C571.173 321.666 571.498 321.814 571.794 321.932C572.119 322.05 572.622 322.109 573.302 322.109C573.775 321.193 574.381 320.735 575.12 320.735C575.623 320.735 576.037 320.912 576.362 321.267C576.717 321.622 576.895 322.05 576.895 322.553C576.895 323.706 576.451 324.534 575.564 325.037C574.707 325.51 573.627 325.746 572.326 325.746ZM582.971 358.7C583.03 358.936 583.059 359.173 583.059 359.41C583.059 359.853 582.897 360.267 582.572 360.651C582.276 361.006 581.847 361.184 581.285 361.184C580.96 361.184 580.62 361.065 580.265 360.829C579.94 360.563 579.704 360.267 579.556 359.942V359.986L577.294 354.353H563.278C562.953 355.211 562.584 356.157 562.17 357.192C561.756 358.197 561.371 359.129 561.017 359.986C560.869 360.282 560.617 360.563 560.263 360.829C559.937 361.065 559.627 361.184 559.331 361.184C558.799 361.184 558.37 360.991 558.045 360.607C557.72 360.223 557.557 359.823 557.557 359.41C557.557 359.173 557.587 358.936 557.646 358.7L566.294 336.967L568.601 331.335V331.379C568.749 331.054 568.97 330.773 569.266 330.536C569.591 330.27 569.946 330.137 570.33 330.137C570.656 330.137 570.981 330.27 571.306 330.536C571.631 330.773 571.868 331.054 572.016 331.379V331.335L582.971 358.7ZM575.786 350.717L570.33 336.79L564.786 350.717H575.786ZM602.966 361.184C600.925 361.184 599.003 360.784 597.2 359.986C595.396 359.158 593.814 358.049 592.454 356.66C591.124 355.24 590.059 353.585 589.261 351.692C588.492 349.8 588.108 347.789 588.108 345.66C588.108 343.531 588.492 341.536 589.261 339.673C590.059 337.781 591.124 336.125 592.454 334.705C593.814 333.286 595.396 332.177 597.2 331.379C599.003 330.551 600.925 330.137 602.966 330.137C605.006 330.137 606.928 330.551 608.731 331.379C610.535 332.177 612.102 333.286 613.433 334.705C614.763 336.125 615.813 337.781 616.582 339.673C617.38 341.536 617.779 343.531 617.779 345.66C617.779 347.789 617.38 349.8 616.582 351.692C615.813 353.585 614.763 355.24 613.433 356.66C612.102 358.049 610.535 359.158 608.731 359.986C606.928 360.784 605.006 361.184 602.966 361.184ZM602.966 333.774C601.398 333.774 599.935 334.085 598.575 334.705C597.215 335.326 596.032 336.169 595.027 337.234C594.021 338.298 593.223 339.555 592.632 341.003C592.04 342.452 591.744 344.005 591.744 345.66C591.744 347.316 592.04 348.869 592.632 350.317C593.223 351.766 594.021 353.023 595.027 354.087C596.032 355.152 597.215 355.994 598.575 356.615C599.935 357.236 601.398 357.547 602.966 357.547C604.503 357.547 605.952 357.236 607.312 356.615C608.672 355.994 609.855 355.152 610.86 354.087C611.895 353.023 612.693 351.766 613.255 350.317C613.847 348.869 614.142 347.316 614.142 345.66C614.142 344.005 613.847 342.452 613.255 341.003C612.693 339.555 611.895 338.298 610.86 337.234C609.855 336.169 608.672 335.326 607.312 334.705C605.952 334.085 604.503 333.774 602.966 333.774Z" fill="white"/>
<path d="M167.369 372.384C168.13 372.976 168.275 374.073 167.661 374.816C162.108 381.531 154.717 386.468 146.393 388.997C137.514 391.694 128.021 391.517 119.248 388.49C110.474 385.463 102.862 379.739 97.4814 372.122C92.1006 364.505 89.2218 355.379 89.2497 346.026C89.2776 336.674 92.2109 327.565 97.637 319.981C103.063 312.397 110.709 306.719 119.501 303.745C128.292 300.772 137.786 300.652 146.648 303.403C154.957 305.983 162.319 310.965 167.831 317.713C168.441 318.46 168.29 319.556 167.524 320.143V320.143C166.75 320.737 165.643 320.583 165.023 319.83C159.958 313.68 153.218 309.139 145.618 306.779C137.456 304.245 128.711 304.355 120.614 307.094C112.517 309.833 105.474 315.063 100.477 322.048C95.4789 329.033 92.7772 337.423 92.7515 346.037C92.7258 354.651 95.3773 363.057 100.333 370.072C105.289 377.088 112.3 382.36 120.381 385.148C128.462 387.936 137.205 388.099 145.383 385.615C152.997 383.302 159.763 378.801 164.865 372.682C165.49 371.933 166.598 371.786 167.369 372.384V372.384Z" fill="white"/>
<path d="M273.532 398.229H268.818V382.832H273.532C277.239 382.832 279.824 386.596 279.824 390.511C279.824 393.648 277.828 398.229 273.532 398.229ZM270.662 396.385H273.513C275.889 396.385 277.961 393.686 277.961 390.511C277.961 387.204 275.87 384.695 273.532 384.695H270.662V396.385ZM294.09 398.229H284.548V382.832H294.071V384.676H286.392V389.39C286.392 389.39 286.601 389.238 287.285 389.238H294.071V391.082H287.152C286.62 391.082 286.411 391.367 286.411 391.519V396.385H294.09V398.229ZM303.888 398.229C301.817 398.229 299.935 397.829 298.015 395.415L299.479 394.313C300.277 395.358 301.227 396.404 303.869 396.404C306.264 396.404 307.519 395.32 307.519 393.686C307.519 392.317 306.397 391.842 303.736 391.196C301.512 390.663 298.509 389.884 298.509 386.938C298.509 384.467 300.353 382.832 303.375 382.832C305.333 382.832 306.93 383.288 308.678 385.303L307.215 386.406C305.751 384.961 304.725 384.619 303.356 384.619C301.341 384.619 300.353 385.569 300.353 386.881C300.353 388.306 301.493 388.744 304.193 389.409C306.34 389.941 309.363 390.72 309.363 393.686C309.363 396.689 306.873 398.229 303.888 398.229ZM320.16 398.229C316.283 398.229 313.812 394.37 313.812 390.549C313.812 386.501 316.492 382.832 320.16 382.832C322.175 382.832 324.038 384.011 325.216 385.911L325.711 386.71L324.114 387.679L323.639 386.881C322.783 385.436 321.434 384.676 320.141 384.676C317.765 384.676 315.655 387.204 315.655 390.53C315.655 393.838 317.765 396.366 320.141 396.366C321.434 396.366 322.783 395.605 323.639 394.161L324.114 393.362L325.711 394.332L325.216 395.13C324.038 397.05 322.137 398.229 320.16 398.229ZM335.834 398.248C331.861 398.248 329.504 394.18 329.504 390.549C329.504 386.71 331.994 382.832 335.834 382.832C339.503 382.832 342.145 386.577 342.145 390.549C342.145 393.952 339.959 398.248 335.834 398.248ZM335.834 384.714C333.458 384.714 331.348 387.242 331.348 390.549C331.348 393.876 333.458 396.404 335.834 396.404C338.21 396.404 340.301 393.876 340.301 390.549C340.301 387.242 338.21 384.714 335.834 384.714ZM357.685 382.832H359.415V398.229H357.571V388.534L354.036 398.229H352.42L348.885 388.534V398.229H347.041V382.832H348.771L353.219 395.073L357.685 382.832ZM364.609 382.832H371.052C373.314 382.832 375.139 384.695 375.139 386.938C375.139 389.219 373.295 391.082 371.033 391.082H367.156C366.528 391.082 366.452 391.424 366.452 391.5V398.229H364.609V382.832ZM371.033 389.238C372.269 389.219 373.276 388.173 373.276 386.938C373.276 385.683 372.269 384.657 371.033 384.657H366.452V389.352C366.452 389.352 366.585 389.238 367.194 389.238H371.033ZM381.477 396.385H389.612V398.229H379.633V382.832H381.477V396.385ZM394.787 398.229V382.832H396.631V398.229H394.787ZM407.486 398.229C403.608 398.229 401.137 394.37 401.137 390.549C401.137 386.501 403.817 382.832 407.486 382.832C409.501 382.832 411.363 384.011 412.542 385.911L413.036 386.71L411.439 387.679L410.964 386.881C410.109 385.436 408.759 384.676 407.467 384.676C405.091 384.676 402.981 387.204 402.981 390.53C402.981 393.838 405.091 396.366 407.467 396.366C408.759 396.366 410.109 395.605 410.964 394.161L411.439 393.362L413.036 394.332L412.542 395.13C411.363 397.05 409.463 398.229 407.486 398.229ZM418.627 398.229H416.726L422.087 382.832H423.607L428.967 398.21H427.029L425.299 393.305C425.299 393.305 424.957 393.477 424.272 393.477L421.136 393.458C420.357 393.458 420.129 393.876 420.11 393.952L418.627 398.229ZM422.847 386.215L420.851 391.842C420.851 391.842 421.022 391.728 421.402 391.728H423.911C424.52 391.728 424.672 391.519 424.672 391.519L422.847 386.215ZM443.348 398.229H441.181L435.022 386.919V398.229H433.178V382.832H434.889L441.504 394.997V382.832H443.348V398.229ZM452.991 398.229H448.277V382.832H452.991C456.697 382.832 459.282 386.596 459.282 390.511C459.282 393.648 457.287 398.229 452.991 398.229ZM450.121 396.385H452.972C455.348 396.385 457.42 393.686 457.42 390.511C457.42 387.204 455.329 384.695 452.991 384.695H450.121V396.385ZM469.532 398.248C465.56 398.248 463.203 394.18 463.203 390.549C463.203 386.71 465.693 382.832 469.532 382.832C473.201 382.832 475.843 386.577 475.843 390.549C475.843 393.952 473.657 398.248 469.532 398.248ZM469.532 384.714C467.156 384.714 465.046 387.242 465.046 390.549C465.046 393.876 467.156 396.404 469.532 396.404C471.908 396.404 473.999 393.876 473.999 390.549C473.999 387.242 471.908 384.714 469.532 384.714ZM493.415 398.229C491.343 398.229 489.462 397.829 487.542 395.415L489.005 394.313C489.804 395.358 490.754 396.404 493.396 396.404C495.791 396.404 497.046 395.32 497.046 393.686C497.046 392.317 495.924 391.842 493.263 391.196C491.039 390.663 488.036 389.884 488.036 386.938C488.036 384.467 489.88 382.832 492.902 382.832C494.86 382.832 496.457 383.288 498.205 385.303L496.742 386.406C495.278 384.961 494.252 384.619 492.883 384.619C490.868 384.619 489.88 385.569 489.88 386.881C489.88 388.306 491.02 388.744 493.719 389.409C495.867 389.941 498.89 390.72 498.89 393.686C498.89 396.689 496.4 398.229 493.415 398.229ZM508.528 398.229C505.809 398.229 503.529 396.024 503.529 393.21V382.832H505.372V393.21C505.372 394.959 506.779 396.385 508.528 396.385C510.295 396.385 511.702 394.959 511.702 393.21V382.832H513.546V393.21C513.546 396.024 511.265 398.229 508.528 398.229ZM519.214 398.229H517.313L522.673 382.832H524.194L529.554 398.21H527.615L525.885 393.305C525.885 393.305 525.543 393.477 524.859 393.477L521.723 393.458C520.943 393.458 520.715 393.876 520.696 393.952L519.214 398.229ZM523.433 386.215L521.437 391.842C521.437 391.842 521.609 391.728 521.989 391.728H524.498C525.106 391.728 525.258 391.519 525.258 391.519L523.433 386.215ZM550.832 398.229H541.29V382.832H550.813V384.676H543.133V389.39C543.133 389.39 543.343 389.238 544.027 389.238H550.813V391.082H543.894C543.362 391.082 543.152 391.367 543.152 391.519V396.385H550.832V398.229ZM566.142 382.832H567.872V398.229H566.028V388.534L562.493 398.229H560.877L557.342 388.534V398.229H555.498V382.832H557.228L561.675 395.073L566.142 382.832ZM573.065 382.832H579.509C581.771 382.832 583.596 384.695 583.596 386.938C583.596 389.219 581.752 391.082 579.49 391.082H575.613C574.985 391.082 574.909 391.424 574.909 391.5V398.229H573.065V382.832ZM579.49 389.238C580.726 389.219 581.733 388.173 581.733 386.938C581.733 385.683 580.726 384.657 579.49 384.657H574.909V389.352C574.909 389.352 575.042 389.238 575.651 389.238H579.49ZM587.737 382.832H594.181C596.443 382.832 598.268 384.695 598.268 386.938C598.268 388.725 597.127 390.245 595.569 390.834L598.857 398.229H596.861L593.896 391.576C593.668 391.082 593.345 391.082 593.307 391.082H590.284C589.657 391.082 589.581 391.424 589.581 391.5V398.229H587.737V382.832ZM594.162 389.238C595.397 389.219 596.405 388.173 596.405 386.938C596.405 385.683 595.397 384.657 594.162 384.657H589.581V389.352C589.581 389.352 589.714 389.238 590.322 389.238H594.162ZM612.563 398.229H603.021V382.832H612.544V384.676H604.865V389.39C604.865 389.39 605.074 389.238 605.758 389.238H612.544V391.082H605.625C605.093 391.082 604.884 391.367 604.884 391.519V396.385H612.563V398.229ZM622.362 398.229C620.29 398.229 618.408 397.829 616.488 395.415L617.952 394.313C618.75 395.358 619.7 396.404 622.343 396.404C624.738 396.404 625.992 395.32 625.992 393.686C625.992 392.317 624.871 391.842 622.209 391.196C619.986 390.663 616.982 389.884 616.982 386.938C616.982 384.467 618.826 382.832 621.848 382.832C623.806 382.832 625.403 383.288 627.152 385.303L625.688 386.406C624.224 384.961 623.198 384.619 621.829 384.619C619.814 384.619 618.826 385.569 618.826 386.881C618.826 388.306 619.967 388.744 622.666 389.409C624.814 389.941 627.836 390.72 627.836 393.686C627.836 396.689 625.346 398.229 622.362 398.229ZM633.729 398.229H631.829L637.189 382.832H638.709L644.07 398.21H642.131L640.401 393.305C640.401 393.305 640.059 393.477 639.375 393.477L636.238 393.458C635.459 393.458 635.231 393.876 635.212 393.952L633.729 398.229ZM637.949 386.215L635.953 391.842C635.953 391.842 636.124 391.728 636.505 391.728H639.014C639.622 391.728 639.774 391.519 639.774 391.519L637.949 386.215Z" fill="white"/>
</svg>
